<svg width="40" height="40" viewBox="0 0 40 40" fill="none" xmlns="http://www.w3.org/2000/svg">
<path d="M17.5 27.4312C16.6182 27.3337 15.7672 27.1345 14.9589 26.8452C14.9861 26.2558 15.0002 25.641 15.0002 25L15.0003 24.799C15.0004 24.5968 15.0005 24.3824 14.9996 24.1578C15.7769 24.5271 16.6172 24.7851 17.5 24.9114V18.75C17.5 16.6789 19.1789 15 21.25 15H27.4115C26.8048 10.7596 23.1581 7.5 18.75 7.5C17.286 7.5 15.906 7.85955 14.6934 8.49518C14.4851 7.65575 14.1668 6.88952 13.7269 6.18093C15.2388 5.4252 16.9448 5 18.75 5C24.5407 5 29.3095 9.37505 29.9313 15H33.75C35.821 15 37.5 16.6789 37.5 18.75V31.25C37.5 33.321 35.821 35 33.75 35H21.25C19.1789 35 17.5 33.321 17.5 31.25V27.4312ZM29.9313 17.5C29.355 22.7145 25.2145 26.855 20 27.4312V31.25C20 31.9403 20.5597 32.5 21.25 32.5H33.75C34.4403 32.5 35 31.9403 35 31.25V18.75C35 18.0597 34.4403 17.5 33.75 17.5H29.9313ZM27.4115 17.5H21.25C20.5597 17.5 20 18.0597 20 18.75V24.9114C23.8321 24.3632 26.8633 21.3321 27.4115 17.5ZM11.9874 18.9027C11.7251 17.9385 11.2997 16.9702 10.5708 16.2296C11.7491 15.1077 12.5 13.3296 12.5 11.25C12.5 9.50665 12.147 8.3107 11.5088 7.3535C11.2033 6.89518 10.8582 6.5311 10.5368 6.22043C10.3667 6.05605 10.2342 5.93385 10.11 5.81935C9.95688 5.67815 9.8164 5.54865 9.63388 5.36613C9.25863 4.99088 9.21875 4.6908 9.21875 4.53125C9.21875 4.43465 9.23508 4.3562 9.24878 4.30825C9.25343 4.29198 9.2574 4.28058 9.25953 4.27475C9.491 3.77465 9.36763 3.1796 8.95225 2.8129C8.52735 2.43781 7.90323 2.39555 7.43163 2.70995L7.42723 2.71288L7.42013 2.71768L7.3979 2.73278L7.3234 2.78453C7.26105 2.82838 7.17403 2.89085 7.06793 2.97028C6.85625 3.1287 6.56555 3.35688 6.24178 3.64135C5.61355 4.19335 4.8002 5.00968 4.22158 5.9852C3.73825 6.73425 3.31853 7.6654 3.01773 8.56553C2.71833 9.46142 2.5 10.4358 2.5 11.25C2.5 13.3296 3.25093 15.1077 4.42928 16.2296C3.70028 16.9702 3.27495 17.9385 3.0126 18.9027C2.49968 20.7879 2.49987 23.1117 2.5 24.9109V25C2.5 30.1455 3.4635 33.202 4.55315 35.018C5.09945 35.9285 5.67045 36.5148 6.14665 36.8853C6.38345 37.0692 6.593 37.1973 6.75888 37.284C6.84168 37.3275 6.9133 37.3605 6.97168 37.385C6.97168 37.385 7.28885 37.5 7.5 37.5C7.71115 37.5 8.02835 37.385 8.02835 37.385C8.0867 37.3605 8.15833 37.3275 8.24115 37.284C8.40703 37.1973 8.61655 37.0692 8.85338 36.8853C9.32955 36.5148 9.90058 35.9285 10.4469 35.018C11.5365 33.202 12.5 30.1455 12.5 25L12.5 24.9109C12.5002 23.1117 12.5004 20.7878 11.9874 18.9027ZM6.21803 17.9762C6.4979 17.695 6.87635 17.5 7.5 17.5C8.12368 17.5 8.50213 17.695 8.78198 17.9762C9.09743 18.2931 9.3707 18.8078 9.5751 19.559C9.99115 21.0882 10 23.0933 10 25C10 29.8545 9.0885 32.423 8.30315 33.732C8.00383 34.2307 7.71895 34.5538 7.5 34.7568C7.28105 34.5538 6.9962 34.2307 6.69688 33.732C5.91153 32.423 5 29.8545 5 25C5 23.0933 5.00885 21.0882 5.4249 19.559C5.62933 18.8078 5.9026 18.2931 6.21803 17.9762ZM7.5 15C6.5382 15 5 13.9309 5 11.25C5 10.8168 5.13023 10.1317 5.38883 9.35792C5.6428 8.59793 5.98475 7.85945 6.33268 7.32453C6.343 7.30865 6.35298 7.29253 6.36258 7.27618C6.57943 6.90703 6.86348 6.54913 7.16755 6.22135C7.33895 6.52775 7.56743 6.8352 7.86613 7.1339C8.04988 7.31765 8.28735 7.5387 8.49005 7.72735C8.61215 7.84102 8.72165 7.94292 8.7992 8.01787C9.06373 8.2736 9.2655 8.49547 9.42868 8.74025C9.72806 9.18932 10 9.86837 10 11.25C10 13.9309 8.46183 15 7.5 15Z" fill="#212121"/>
</svg>
