<svg width="40" height="40" viewBox="0 0 40 40" fill="none" xmlns="http://www.w3.org/2000/svg">
<path d="M27.1895 15C28.6728 14.9999 30.1228 14.5599 31.3561 13.7358C32.5894 12.9116 33.5506 11.7402 34.1182 10.3698C34.6858 8.9993 34.8342 7.49131 34.5448 6.03649C34.2553 4.58167 33.541 3.24535 32.4921 2.19651C31.4432 1.14767 30.1068 0.433419 28.6519 0.144074C27.1971 -0.145271 25.6891 0.00328567 24.3187 0.570959C22.9483 1.13863 21.777 2.09993 20.9529 3.33328C20.1288 4.56664 19.689 6.01667 19.689 7.5C19.6913 9.48851 20.4823 11.3949 21.8884 12.8009C23.2946 14.207 25.201 14.9978 27.1895 15ZM27.1895 1.25C28.4256 1.25009 29.634 1.61673 30.6617 2.30354C31.6894 2.99035 32.4905 3.9665 32.9634 5.10855C33.4364 6.25059 33.5601 7.50724 33.3189 8.7196C33.0777 9.93195 32.4824 11.0455 31.6083 11.9196C30.7342 12.7936 29.6206 13.3888 28.4082 13.6299C27.1958 13.8711 25.9392 13.7473 24.7972 13.2742C23.6552 12.8011 22.6791 12.0001 21.9923 10.9723C21.3056 9.94447 20.9391 8.73612 20.9391 7.5C20.941 5.84291 21.6001 4.25425 22.7719 3.08256C23.9437 1.91086 25.5324 1.25181 27.1895 1.25Z" fill="black"/>
<path d="M27.8145 9.79176H26.5644C26.1829 9.79176 25.9394 9.58608 25.9394 9.44447C25.9394 9.2787 25.8735 9.11972 25.7563 9.0025C25.6391 8.88528 25.4801 8.81943 25.3143 8.81943C25.1485 8.81943 24.9896 8.88528 24.8723 9.0025C24.7551 9.11972 24.6893 9.2787 24.6893 9.44447C24.6893 10.3252 25.5304 11.0418 26.5644 11.0418V11.875C26.5644 12.0408 26.6303 12.1998 26.7475 12.317C26.8647 12.4342 27.0237 12.5001 27.1894 12.5001C27.3552 12.5001 27.5142 12.4342 27.6314 12.317C27.7486 12.1998 27.8145 12.0408 27.8145 11.875V11.0418C28.8485 11.0418 29.6896 10.3252 29.6896 9.44447V8.47218C29.6896 7.59145 28.8485 6.87505 27.8145 6.87505H26.5644C26.1829 6.87505 25.9394 6.66936 25.9394 6.52775V5.55562C25.9394 5.41402 26.1829 5.20833 26.5644 5.20833H27.8145C28.196 5.20833 28.4395 5.41401 28.4395 5.55562C28.4395 5.72139 28.5054 5.88037 28.6226 5.99759C28.7398 6.11481 28.8988 6.18066 29.0646 6.18066C29.2304 6.18066 29.3893 6.11481 29.5066 5.99759C29.6238 5.88037 29.6896 5.72139 29.6896 5.55562C29.6896 4.67488 28.8485 3.95833 27.8145 3.95833V3.12505C27.8145 2.95927 27.7486 2.80029 27.6314 2.68307C27.5142 2.56585 27.3552 2.5 27.1894 2.5C27.0237 2.5 26.8647 2.56585 26.7475 2.68307C26.6303 2.80029 26.5644 2.95927 26.5644 3.12505V3.95833C25.5304 3.95833 24.6893 4.67489 24.6893 5.55562V6.52775C24.6893 7.40848 25.5304 8.12505 26.5644 8.12505H27.8145C28.1902 8.12505 28.4395 8.33394 28.4395 8.47218V9.44447C28.4395 9.58607 28.196 9.79176 27.8145 9.79176ZM22.1598 31.2957C22.0791 31.3109 22.0023 31.3419 21.9336 31.3868C21.8649 31.4318 21.8057 31.4898 21.7595 31.5576C21.7132 31.6254 21.6808 31.7017 21.664 31.7821C21.6472 31.8624 21.6465 31.9453 21.6617 32.0259C21.6945 32.1877 21.7892 32.3303 21.9255 32.4233C22.0619 32.5163 22.2291 32.5525 22.3917 32.524C23.0977 32.3905 23.6974 31.5583 23.8643 31.3063C24.1094 30.9365 24.6392 30.0065 24.2663 29.3584C24.1876 29.2216 24.0601 29.1197 23.9094 29.073C23.7587 29.0263 23.5959 29.0384 23.4537 29.1067C23.3115 29.1751 23.2004 29.2947 23.1428 29.4415C23.0851 29.5884 23.0851 29.7516 23.1427 29.8985C23.2727 30.2303 22.4877 31.2336 22.1598 31.2957ZM19.0751 22.2985C19.1146 21.9786 19.0845 21.654 18.9868 21.3469C18.8892 21.0398 18.7263 20.7574 18.5093 20.5191C17.975 19.9665 17.1648 19.7768 16.3216 19.7236L19.0751 22.2985ZM22.5578 23.0014C22.9155 23.0122 23.2544 23.1643 23.5002 23.4243C23.7937 23.8294 24.2388 23.7744 24.6748 23.6469L26.2056 22.0765C25.6492 22.065 25.096 22.1637 24.5779 22.367C24.4942 22.3949 24.3932 22.4285 24.3081 22.454C23.8451 22.0357 23.2507 21.792 22.6274 21.7649C22.3933 21.7526 22.1596 21.7948 21.9447 21.8881C21.7297 21.9814 21.5393 22.1234 21.3885 22.3028C21.2377 22.4821 21.1306 22.6941 21.0755 22.9219C21.0205 23.1497 21.0191 23.3872 21.0715 23.6156C21.1192 23.7908 21.1874 23.9598 21.2747 24.119C21.2979 24.1665 21.3287 24.2284 21.3562 24.2881C21.3071 24.2933 21.2578 24.2951 21.2085 24.2935L22.23 25.2488C22.3751 25.1466 22.4938 25.0115 22.5763 24.8544C22.6427 24.6916 22.6725 24.5162 22.6635 24.3406C22.6544 24.165 22.6069 23.9936 22.5242 23.8384C22.4255 23.6004 22.0572 23.0536 22.5578 23.0014ZM8.27661 25.1078L11.5351 21.7717C11.4463 21.7888 11.3573 21.8088 11.2679 21.8316C10.5124 22.0425 9.83133 22.4614 9.30243 23.0407C8.77354 23.62 8.41808 24.3362 8.27661 25.1078ZM14.3055 28.5729C13.4791 27.8254 12.1868 28.0036 11.9 28.0544C11.5445 28.0602 11.1934 27.9763 10.879 27.8105C10.8057 27.7777 10.0556 28.6559 9.95221 28.7579C10.5628 29.1067 11.2522 29.2941 11.9554 29.3023C12.441 29.2729 13.0649 29.1336 13.4684 29.5014C13.5661 29.6163 13.6357 29.7522 13.6718 29.8986C13.7079 30.045 13.7096 30.1978 13.6765 30.3449C13.6571 30.7257 13.7527 31.1035 13.9509 31.4291C14.3132 32.1379 14.1319 32.9773 14.293 33.7333C14.4275 34.4978 14.7732 35.2094 15.291 35.7877C15.9869 36.5127 17.0119 36.3001 17.7463 35.7642C18.3925 35.3225 18.9667 34.7838 19.4486 34.1671C19.8977 33.5205 20.1468 32.7561 20.1647 31.9691C20.1782 31.5746 20.2427 31.1835 20.3567 30.8056C20.5383 30.3865 20.784 29.9982 21.0849 29.6546C21.1355 29.5896 21.1869 29.5224 21.2381 29.4556L20.3205 28.5975C20.2494 28.6921 20.1755 28.7875 20.0988 28.8858C19.7133 29.3313 19.4032 29.8367 19.1805 30.3821C18.9044 31.1483 18.9955 31.9584 18.8104 32.7388C18.6057 33.602 17.6834 34.2632 17.0099 34.7542C16.7471 34.9457 16.3925 35.1296 16.1929 34.9224C15.8381 34.5107 15.6038 34.0092 15.5156 33.473C15.3639 32.7628 15.4958 32.0294 15.2693 31.3271C15.1897 31.0802 14.8944 30.7316 14.9205 30.4671C15.0203 29.4516 14.6412 28.8765 14.3055 28.5729Z" fill="black"/>
<path d="M2.36669 31.1585C1.62969 29.5166 1.24913 27.7372 1.25011 25.9375C1.2513 25.4021 1.28591 24.8674 1.35374 24.3363C1.81968 24.3762 2.81803 24.5255 2.86735 25.0754C2.81543 25.7119 2.82401 26.3519 2.89298 26.9868C3.00499 27.9648 3.68283 28.5457 4.28071 29.0581C4.30681 29.0804 4.32999 29.1009 4.35514 29.1227L5.23036 28.2266C5.1849 28.1873 5.13922 28.1474 5.09437 28.109C4.60972 27.6936 4.19099 27.3351 4.13514 26.8451C4.07389 26.2763 4.06766 25.703 4.11652 25.1331C4.1185 25.1098 4.11911 25.0864 4.11835 25.063C4.08366 23.967 3.13943 23.2498 1.57077 23.0998C1.66745 22.674 1.78604 22.2535 1.92607 21.8399C2.03257 21.8738 2.14314 21.8932 2.25482 21.8977C2.27068 21.8982 2.28625 21.8985 2.30212 21.8985C3.09104 21.8985 3.79329 21.1832 4.31949 20.5552C5.23236 19.4659 6.95642 19.5181 7.47095 18.025C7.62209 17.4976 7.63638 16.9403 7.51246 16.4058C7.50117 16.3386 7.49048 16.252 7.47828 16.1548C7.44535 15.7916 7.37386 15.4329 7.26502 15.0848C8.79848 14.1195 10.5206 13.4934 12.3159 13.2482C12.324 13.4952 12.4078 14.0428 12.1872 14.225C11.8292 14.5205 11.3541 14.6084 10.941 14.7971C10.4976 14.995 10.0937 15.2715 9.74895 15.6134C9.24324 16.1308 9.2881 16.5775 9.41476 16.861C9.46408 16.9712 9.54424 17.0648 9.64558 17.1304C9.74691 17.1961 9.86508 17.231 9.98583 17.231C10.1249 17.2314 10.26 17.1847 10.3692 17.0986C10.4784 17.0124 10.5552 16.8919 10.5871 16.7565C10.7474 15.9782 11.7976 15.7485 12.4178 15.4896C13.3529 15.0992 13.613 14.0752 13.5627 13.1377C13.7291 13.1313 13.8956 13.125 14.0635 13.125C15.0557 13.1251 16.0445 13.2406 17.01 13.4692C16.8124 13.729 16.6756 14.03 16.6097 14.3497C16.5439 14.6695 16.5507 15 16.6296 15.3168C16.6342 15.3351 16.6394 15.3532 16.6455 15.3711C16.7119 15.5662 16.7364 15.7731 16.7175 15.9784C16.7105 15.979 16.7026 15.9795 16.6931 15.9796C16.1422 15.9363 13.7391 15.8409 13.5447 17.4135C13.5397 17.4445 13.5363 17.4758 13.5346 17.5072C13.5463 17.7767 13.4823 18.0442 13.35 18.2793C13.2867 18.3208 13.2207 18.3582 13.1525 18.3913C12.8884 18.5026 12.6601 18.6845 12.4927 18.9171C12.3587 19.1339 11.9509 19.7938 12.2949 20.3845C12.3691 20.5076 12.4689 20.6132 12.5875 20.6942L13.5314 19.7278C13.5119 19.7257 13.4904 19.7241 13.4727 19.7215C13.4888 19.6893 13.5093 19.6518 13.5352 19.6085C13.578 19.579 13.6671 19.5325 13.729 19.5004C13.9357 19.4079 14.1227 19.2764 14.2796 19.1132C14.6049 18.6634 14.7811 18.123 14.7835 17.5679C14.8097 17.3564 15.7028 17.1533 16.6153 17.2275C16.6296 17.2287 16.644 17.2293 16.6586 17.2296C16.8619 17.2397 17.0646 17.2006 17.2495 17.1156C17.4344 17.0307 17.596 16.9023 17.7207 16.7415C18.1599 16.1366 17.9182 15.2443 17.8391 14.9997C17.803 14.7809 17.8331 14.5562 17.9255 14.3546C18.0179 14.153 18.1684 13.9836 18.3577 13.868C20.2106 14.532 21.8866 15.612 23.2568 17.0251C24.6271 18.4381 25.655 20.1465 26.2617 22.019L27.2371 21.0183C26.5717 19.2334 25.5506 17.6023 24.2357 16.2241C22.9208 14.8458 21.3396 13.749 19.588 13.0003C17.8364 12.2517 15.951 11.8667 14.0461 11.8688C12.1412 11.8709 10.2566 12.26 8.50665 13.0125C6.75669 13.765 5.17788 14.8652 3.86602 16.2464C2.55416 17.6275 1.5366 19.2608 0.875099 21.0472C0.213595 22.8335 -0.0780618 24.7356 0.017828 26.6381C0.113718 28.5406 0.595154 30.4037 1.43292 32.1145L2.36669 31.1585ZM6.17227 15.8545C6.26307 16.3773 6.4679 17.0973 6.28893 17.6179C6.18088 17.9323 5.9233 18.1667 5.42764 18.4021C4.67421 18.7608 3.90862 19.0989 3.36116 19.7525C3.10852 20.1057 2.78437 20.4017 2.40978 20.6214C3.26617 18.7553 4.55617 17.1209 6.17227 15.8545ZM26.8452 26.7929C26.6533 29.7288 25.4548 32.5086 23.4518 34.6637C21.4489 36.8189 18.7641 38.2173 15.8501 38.6234C15.8124 38.5037 15.7625 38.3883 15.7012 38.2788C15.3714 37.745 14.9345 37.2853 14.4181 36.9289C13.9016 36.5724 13.3169 36.3269 12.7008 36.2079C10.6438 35.8401 8.69234 37.0123 8.21184 37.3292C7.14305 36.7769 6.1569 36.0776 5.28216 35.2517C5.36782 35.194 5.44709 35.1273 5.51861 35.0528C6.08719 34.4526 6.02341 33.5365 5.9349 33.0437C5.92648 32.9914 5.92211 32.9385 5.92183 32.8855L3.57313 35.2901C5.46814 37.4189 7.9655 38.9212 10.734 39.598C13.5025 40.2747 16.4113 40.0938 19.0746 39.0794C21.738 38.0649 24.03 36.2648 25.6467 33.9177C27.2634 31.5706 28.1285 28.7875 28.127 25.9375C28.127 25.7873 28.1204 25.6387 28.1157 25.4896L26.8452 26.7929ZM14.0635 38.75C12.5543 38.7501 11.0571 38.4819 9.64175 37.9577C10.5129 37.4989 11.5036 37.3176 12.4808 37.4384C13.2924 37.599 14.0116 38.0648 14.4903 38.7396C14.3483 38.7443 14.2066 38.75 14.0635 38.75Z" fill="black"/>
<path d="M39.98 11.1035C39.9391 10.9443 39.8378 10.8074 39.6976 10.7217C39.5573 10.6361 39.3892 10.6084 39.2289 10.6448C39.2246 10.6458 39.2203 10.6453 39.216 10.6464L35.4657 11.6512C35.3864 11.6724 35.3121 11.7091 35.2469 11.759C35.1817 11.8089 35.1271 11.8712 35.086 11.9423C35.0449 12.0134 35.0183 12.0919 35.0075 12.1733C34.9968 12.2547 35.0022 12.3374 35.0235 12.4167C35.0447 12.496 35.0814 12.5704 35.1314 12.6355C35.1814 12.7006 35.2437 12.7553 35.3148 12.7963C35.3859 12.8373 35.4644 12.8639 35.5458 12.8746C35.6272 12.8853 35.71 12.8798 35.7892 12.8585L37.3425 12.4425L22.7326 27.4302L15.3517 20.5282C15.2323 20.4166 15.0739 20.3563 14.9106 20.36C14.7472 20.3637 14.5918 20.4312 14.4776 20.548L0.177859 35.1884C0.0620587 35.307 -0.00190192 35.4667 4.30967e-05 35.6324C0.00198812 35.7981 0.0696795 35.9563 0.188231 36.0722C0.307973 36.1857 0.467249 36.2481 0.632264 36.2462C0.797279 36.2443 0.955046 36.1781 1.07209 36.0618L14.9445 21.8589L22.3258 28.7614C22.4452 28.8731 22.6037 28.9335 22.7672 28.9297C22.9308 28.9259 23.0863 28.8582 23.2004 28.7411L38.1544 13.4006L37.7691 14.8383C37.7265 14.9983 37.7492 15.1686 37.8322 15.3119C37.9151 15.4552 38.0514 15.5597 38.2113 15.6025C38.3712 15.6454 38.5416 15.623 38.685 15.5404C38.8284 15.4578 38.9333 15.3216 38.9764 15.1618L39.9814 11.4118C39.9831 11.4057 39.9824 11.3995 39.9839 11.3934C40.0065 11.2979 40.0052 11.1983 39.98 11.1035Z" fill="black"/>
</svg>
