<svg width="40" height="40" viewBox="0 0 40 40" fill="none" xmlns="http://www.w3.org/2000/svg">
<g clip-path="url(#clip0_89_686)">
<path d="M10.5275 32.3534H1.87081C1.40581 32.3534 1.24997 32.3534 1.24997 31.5109V29.5067C1.24997 29.3409 1.18413 29.182 1.06692 29.0648C0.949705 28.9476 0.790734 28.8817 0.624974 28.8817C0.459213 28.8817 0.300242 28.9476 0.183032 29.0648C0.0658218 29.182 -2.62503e-05 29.3409 -2.62503e-05 29.5067V31.5109C-0.0471345 31.777 -0.0331794 32.0504 0.0407863 32.3104C0.114752 32.5704 0.246796 32.8102 0.426957 33.0117C0.607118 33.2132 0.83069 33.3712 1.08081 33.4737C1.33092 33.5762 1.60105 33.6205 1.87081 33.6034H10.5275C10.6932 33.6034 10.8522 33.5375 10.9694 33.4203C11.0866 33.3031 11.1525 33.1441 11.1525 32.9784C11.1525 32.8126 11.0866 32.6536 10.9694 32.5364C10.8522 32.4192 10.6932 32.3534 10.5275 32.3534ZM0.624974 27.5392C0.790734 27.5392 0.949705 27.4734 1.06692 27.3561C1.18413 27.2389 1.24997 27.08 1.24997 26.9142V6.25421L20.1666 6.28671V16.7075C20.1666 16.8733 20.2325 17.0323 20.3497 17.1495C20.4669 17.2667 20.6259 17.3325 20.7916 17.3325C20.9574 17.3325 21.1164 17.2667 21.2336 17.1495C21.3508 17.0323 21.4166 16.8733 21.4166 16.7075V6.28671C21.4198 5.9487 21.2885 5.62328 21.0518 5.38201C20.815 5.14073 20.4922 5.00334 20.1541 5.00004H1.77997L4.63831 2.58337H22.805C23.0702 2.58337 23.3245 2.68873 23.5121 2.87627C23.6996 3.0638 23.805 3.31816 23.805 3.58337V16.2667C23.805 16.4325 23.8708 16.5914 23.988 16.7086C24.1052 16.8259 24.2642 16.8917 24.43 16.8917C24.5957 16.8917 24.7547 16.8259 24.8719 16.7086C24.9891 16.5914 25.055 16.4325 25.055 16.2667V3.58337C25.055 2.98664 24.8179 2.41434 24.396 1.99238C23.974 1.57043 23.4017 1.33337 22.805 1.33337H4.40997C4.26231 1.33328 4.11941 1.38555 4.00664 1.48087L0.29414 4.62587C0.206374 4.71589 0.13777 4.82276 0.0924738 4.94004C0.0344531 5.03323 0.00250848 5.14029 -2.62503e-05 5.25004V26.9167C0.000635063 27.082 0.0667749 27.2404 0.183914 27.357C0.301052 27.4737 0.459646 27.5392 0.624974 27.5392Z" fill="#1A1A1A"/>
<path d="M22.6184 16.4842C22.7841 16.4842 22.9431 16.4184 23.0603 16.3012C23.1775 16.184 23.2434 16.025 23.2434 15.8592V5.03339C23.2427 4.54109 23.0471 4.06909 22.6993 3.72067C22.3515 3.37224 21.8798 3.17577 21.3875 3.17422L5.76587 3.14172C5.60011 3.14172 5.44114 3.20757 5.32393 3.32478C5.20672 3.44199 5.14087 3.60096 5.14087 3.76672C5.14087 3.93248 5.20672 4.09146 5.32393 4.20867C5.44114 4.32588 5.60011 4.39172 5.76587 4.39172L21.3884 4.42422C21.5497 4.42466 21.7043 4.48901 21.8183 4.60318C21.9323 4.71735 21.9965 4.87204 21.9967 5.03339V15.8592C21.9967 16.0244 22.0621 16.1829 22.1786 16.3C22.2951 16.4171 22.4532 16.4833 22.6184 16.4842ZM31.2267 28.3826C31.0609 28.3826 30.902 28.4484 30.7848 28.5656C30.6676 28.6828 30.6017 28.8418 30.6017 29.0076V34.2042C30.6029 34.3262 30.5743 34.4466 30.5184 34.5551C30.1667 35.2259 28.5 37.4167 21.8334 37.4167C15.1667 37.4167 13.5 35.2284 13.1442 34.5567C13.0884 34.4485 13.0598 34.3284 13.0609 34.2067V29.2726C13.0609 29.1068 12.995 28.9478 12.8778 28.8306C12.7606 28.7134 12.6016 28.6476 12.4359 28.6476C12.2701 28.6476 12.1111 28.7134 11.9939 28.8306C11.8767 28.9478 11.8109 29.1068 11.8109 29.2726V34.2042C11.8091 34.5285 11.8857 34.8484 12.0342 35.1367C12.5959 36.1976 14.6667 38.6667 21.8334 38.6667C29 38.6667 31.07 36.2001 31.6275 35.1401C31.7772 34.8518 31.8544 34.5315 31.8525 34.2067V29.0076C31.8525 28.9254 31.8363 28.8441 31.8049 28.7682C31.7734 28.6923 31.7273 28.6234 31.6692 28.5653C31.6111 28.5073 31.5421 28.4613 31.4661 28.4299C31.3902 28.3985 31.3088 28.3824 31.2267 28.3826Z" fill="#1A1A1A"/>
<path d="M39.5722 23.0325L23.0372 17.5092C22.911 17.4667 22.7743 17.4667 22.6481 17.5092L4.02222 23.4808C3.89786 23.5218 3.78946 23.6007 3.71229 23.7064C3.63512 23.8122 3.59307 23.9395 3.59206 24.0705C3.59105 24.2014 3.63112 24.3293 3.70665 24.4363C3.78217 24.5432 3.88934 24.6238 4.01306 24.6667L21.4297 30.5533C21.4942 30.5751 21.5617 30.5864 21.6297 30.5867C21.7013 30.5865 21.7723 30.5741 21.8397 30.55L34.6239 25.985V28.985C34.193 29.1151 33.8152 29.3802 33.5462 29.7411C33.2772 30.1021 33.1312 30.5398 33.1297 30.99V32.25C33.1297 32.8087 33.3517 33.3446 33.7468 33.7396C34.1418 34.1347 34.6777 34.3567 35.2364 34.3567C35.7951 34.3567 36.331 34.1347 36.726 33.7396C37.1211 33.3446 37.3431 32.8087 37.3431 32.25V30.9883C37.3419 30.5422 37.1989 30.1081 36.9349 29.7486C36.6708 29.3891 36.2992 29.1228 35.8739 28.9883V25.5383L39.5831 24.2142C39.7056 24.1705 39.8114 24.0896 39.8858 23.9829C39.9602 23.8762 39.9994 23.7489 39.9981 23.6189C39.9967 23.4888 39.9548 23.3624 39.8781 23.2573C39.8015 23.1522 39.694 23.0736 39.5706 23.0325H39.5722ZM36.0897 32.25C36.0897 32.4772 35.9995 32.6951 35.8388 32.8558C35.6782 33.0164 35.4603 33.1067 35.2331 33.1067C35.0059 33.1067 34.788 33.0164 34.6273 32.8558C34.4666 32.6951 34.3764 32.4772 34.3764 32.25V30.9883C34.3764 30.8758 34.3986 30.7644 34.4416 30.6605C34.4847 30.5566 34.5478 30.4621 34.6273 30.3826C34.7069 30.303 34.8013 30.2399 34.9052 30.1969C35.0092 30.1538 35.1206 30.1317 35.2331 30.1317C35.3456 30.1317 35.457 30.1538 35.5609 30.1969C35.6648 30.2399 35.7593 30.303 35.8388 30.3826C35.9184 30.4621 35.9815 30.5566 36.0245 30.6605C36.0676 30.7644 36.0897 30.8758 36.0897 30.9883V32.25ZM35.1597 24.4667L21.8989 23.0358C21.8163 23.0249 21.7323 23.0307 21.6519 23.0527C21.5715 23.0748 21.4963 23.1127 21.4308 23.1642C21.3653 23.2157 21.3108 23.2798 21.2704 23.3527C21.23 23.4256 21.2046 23.5059 21.1957 23.5888C21.1869 23.6717 21.1946 23.7555 21.2186 23.8353C21.2426 23.9151 21.2823 23.9893 21.3354 24.0536C21.3885 24.1178 21.4539 24.1708 21.5278 24.2094C21.6016 24.248 21.6825 24.2714 21.7656 24.2783L32.4564 25.4317L21.6231 29.3017L6.21139 24.0917L22.8347 18.7583L37.4606 23.6442L35.1597 24.4667Z" fill="#1A1A1A"/>
</g>
<defs>
<clipPath id="clip0_89_686">
<rect width="40" height="40" fill="white"/>
</clipPath>
</defs>
</svg>
