<svg width="40" height="40" viewBox="0 0 40 40" fill="none" xmlns="http://www.w3.org/2000/svg">
<path d="M1.00483 18.9422L2.27023 19.328C2.25177 19.5503 2.23616 19.7734 2.23616 20.0003C2.23616 24.4477 5.85461 28.0662 10.3023 28.0662C14.7499 28.0662 18.3684 24.4477 18.3684 20.0003C18.3684 18.9203 18.1515 17.891 17.7647 16.9487C18.4281 16.5294 19.1958 16.3014 19.9998 16.3014C20.8037 16.3014 21.5714 16.5294 22.2349 16.9487C21.8482 17.8909 21.6313 18.9203 21.6313 20.0003C21.6313 24.4477 25.2497 28.0662 29.6974 28.0662C34.1451 28.0662 37.7635 24.4477 37.7635 20.0003C37.7635 19.7734 37.7479 19.5502 37.7294 19.328L38.9948 18.9422C39.3056 18.8474 39.4808 18.5188 39.386 18.208C39.2912 17.897 38.9618 17.7215 38.6519 17.8168L37.5422 18.1552C36.7045 14.5952 33.5093 11.9342 29.6974 11.9342C26.7492 11.9342 24.1729 13.5291 22.7658 15.8964C21.9383 15.3972 20.9911 15.125 19.9998 15.125C19.0086 15.125 18.0613 15.3972 17.2339 15.8963C15.8267 13.529 13.2504 11.9342 10.3023 11.9342C6.49031 11.9342 3.29512 14.5952 2.45743 18.1552L1.34777 17.8168C1.03613 17.7212 0.708123 17.897 0.613626 18.208C0.518842 18.5188 0.694049 18.8474 1.00483 18.9422ZM23.2214 17.6719C23.2752 17.6875 23.3292 17.7037 23.3848 17.7037C23.5353 17.7037 23.6858 17.6462 23.8007 17.5313C24.0304 17.3016 24.0304 16.9293 23.8007 16.6995C23.77 16.6689 23.7364 16.6427 23.7051 16.6129C24.8902 14.525 27.1301 13.1107 29.6974 13.1107C33.4962 13.1107 36.587 16.2015 36.587 20.0003C36.587 23.7992 33.4962 26.8897 29.6974 26.8897C25.8986 26.8897 22.8077 23.7992 22.8077 20.0003C22.8077 19.1822 22.9585 18.4005 23.2214 17.6719ZM10.3023 13.1107C12.8696 13.1107 15.1094 14.525 16.2945 16.6129C16.2633 16.6427 16.2296 16.6689 16.199 16.6995C15.9692 16.9293 15.9692 17.3019 16.199 17.5313C16.3563 17.6886 16.5788 17.7299 16.7782 17.6719C17.0411 18.4005 17.1919 19.1822 17.1919 20.0003C17.1919 23.7992 14.1011 26.8897 10.3023 26.8897C6.50345 26.8897 3.41263 23.7992 3.41263 20.0003C3.41263 16.2015 6.50345 13.1107 10.3023 13.1107Z" fill="black"/>
<path d="M26.1435 20.3031C26.4218 20.1353 26.5112 19.7737 26.3431 19.4957C25.9493 18.8434 25.7379 18.0972 25.7313 17.3375C25.7285 17.0143 25.4657 16.7544 25.1431 16.7544C25.1414 16.7544 25.1397 16.7544 25.1379 16.7544C24.8131 16.7573 24.552 17.0229 24.5549 17.3478C24.5632 18.318 24.8335 19.2711 25.3361 20.1034C25.5036 20.3816 25.8657 20.4709 26.1435 20.3031ZM12.0213 20.3031C12.2992 20.4709 12.6612 20.3816 12.8287 20.1034C13.3316 19.2705 13.6019 18.3175 13.6099 17.3475C13.6125 17.0227 13.3514 16.757 13.0265 16.7544C13.0248 16.7544 13.0231 16.7544 13.0217 16.7544C12.6991 16.7544 12.436 17.0146 12.4334 17.3377C12.4271 18.0969 12.2154 18.8428 11.8216 19.4957C11.6536 19.7737 11.7429 20.1353 12.0213 20.3031Z" fill="black"/>
</svg>
