<svg width="40" height="40" viewBox="0 0 40 40" fill="none" xmlns="http://www.w3.org/2000/svg">
<path d="M21.0789 28.1206C21.1357 28.1206 21.1926 28.125 21.2501 28.125C23.6856 28.1231 26.0841 27.5292 28.2391 26.3945C30.3941 25.2598 32.241 23.6182 33.6207 21.6113L33.1207 21.2363L32.5751 20.9238C32.2176 21.4393 31.8252 21.9298 31.4007 22.3919L30.0632 21.0544C32.0986 18.7982 33.1899 15.8466 33.1117 12.809C33.0336 9.7714 31.7919 6.8798 29.6433 4.73127C27.4946 2.58274 24.6029 1.34135 21.5653 1.26342C18.5277 1.18549 15.5761 2.27698 13.3201 4.31251L11.9826 2.97501C12.2707 2.71251 12.5676 2.45688 12.8807 2.21563L12.1189 1.22375C9.79698 3.00561 8.04711 5.42781 7.08485 8.19191C6.12259 10.956 5.99 13.9412 6.7034 16.7797C7.4168 19.6183 8.94503 22.1861 11.0998 24.1668C13.2545 26.1475 15.9417 27.4545 18.8301 27.9269C18.9306 28.2002 19.1233 28.4299 19.3751 28.5763V31.25H17.5001C17.3344 31.25 17.1754 31.3159 17.0582 31.4331C16.941 31.5503 16.8751 31.7092 16.8751 31.875V35H11.2501C11.0844 35 10.9254 35.0659 10.8082 35.1831C10.691 35.3003 10.6251 35.4592 10.6251 35.625V38.125C10.6251 38.2908 10.691 38.4497 10.8082 38.567C10.9254 38.6842 11.0844 38.75 11.2501 38.75H28.7501C28.9159 38.75 29.0748 38.6842 29.1921 38.567C29.3093 38.4497 29.3751 38.2908 29.3751 38.125V35.625C29.3751 35.4592 29.3093 35.3003 29.1921 35.1831C29.0748 35.0659 28.9159 35 28.7501 35H23.1251V31.875C23.1251 31.7092 23.0593 31.5503 22.9421 31.4331C22.8248 31.3159 22.6659 31.25 22.5001 31.25H20.6251V28.5763C20.8135 28.4665 20.9699 28.3095 21.0789 28.1206ZM22.2876 23.6975L22.3407 23.5913L23.4032 23.0594C23.5245 22.9989 23.6227 22.9006 23.6832 22.7794L25.4645 19.2169L27.7145 18.0919L29.9239 17.54L30.7101 17.9331C29.902 19.523 28.7071 20.8841 27.2353 21.8914C25.7636 22.8987 24.0622 23.5197 22.2876 23.6975ZM20.2682 2.55C20.592 2.52 20.9189 2.50001 21.2501 2.50001C23.5215 2.50291 25.7323 3.23242 27.5594 4.58187C29.3864 5.93132 30.7338 7.82992 31.4045 10H30.0001C29.9489 10 29.8979 10.0063 29.8482 10.0188L27.3482 10.6438C27.2675 10.664 27.1917 10.7001 27.1251 10.75L24.8489 12.4575L22.2976 11.9469L21.2501 9.85251V6.87501C21.2512 6.7783 21.2298 6.68267 21.1876 6.59563L20.0245 4.27063L20.2682 2.55ZM18.977 2.75001L18.7564 4.28625C18.7385 4.41214 18.7592 4.5405 18.8157 4.65438L20.0001 7.02251V10C19.9991 10.0967 20.0204 10.1923 20.0626 10.2794L21.3126 12.7794C21.3553 12.8646 21.4169 12.9389 21.4928 12.9966C21.5686 13.0544 21.6566 13.094 21.7501 13.1125L24.8751 13.7375C24.9162 13.7462 24.9581 13.7504 25.0001 13.75C25.1353 13.75 25.2669 13.7061 25.3751 13.625L27.7739 11.8256L30.077 11.25H31.702C31.8149 11.8687 31.8728 12.4961 31.8751 13.125C31.8727 14.3738 31.6483 15.6122 31.2126 16.7825L30.2795 16.3156C30.1461 16.2486 29.9929 16.2319 29.8482 16.2688L27.3482 16.8938C27.305 16.9049 27.2631 16.9206 27.2232 16.9406L24.7232 18.1906C24.602 18.2512 24.5038 18.3494 24.4432 18.4706L22.662 22.0331L21.5995 22.565C21.4783 22.6255 21.38 22.7238 21.3195 22.845L20.8751 23.7306C19.6472 23.6911 18.4356 23.4373 17.2951 22.9806L17.4532 22.185L18.5689 21.0694C18.6269 21.0109 18.6727 20.9415 18.7038 20.8653C18.7349 20.789 18.7507 20.7074 18.7501 20.625V18.2263L19.3432 16.4475C19.3799 16.3374 19.3851 16.2193 19.3584 16.1063C19.3317 15.9934 19.2741 15.8902 19.192 15.8081L17.317 13.9331C17.1998 13.8159 17.0409 13.75 16.8751 13.75H15.1014L13.6195 13.2556L13.0932 11.6775C13.0573 11.5697 12.9926 11.4737 12.9061 11.3999C12.8197 11.3262 12.7147 11.2773 12.6026 11.2588L10.8464 10.9675C11.2671 8.96059 12.258 7.11773 13.7002 5.6601C15.1424 4.20247 16.9747 3.19201 18.977 2.75001ZM16.4332 21.4325C16.3458 21.5199 16.2862 21.6313 16.262 21.7525L16.1282 22.4275C14.463 21.5107 13.074 20.164 12.1061 18.5279C11.1382 16.8917 10.6268 15.026 10.6251 13.125C10.6251 12.8125 10.6457 12.5094 10.672 12.2056L12.0264 12.43L12.532 13.9475C12.5627 14.0397 12.6144 14.1234 12.6831 14.1921C12.7517 14.2607 12.8355 14.3125 12.9276 14.3431L14.8026 14.9681C14.8663 14.9893 14.933 15.0001 15.0001 15H16.6164L18.0351 16.4188L17.532 17.9275C17.5108 17.9912 17.5001 18.0579 17.5001 18.125V20.3663L16.4332 21.4325ZM28.1251 36.25V37.5H11.8751V36.25H28.1251ZM21.8751 32.5V35H18.1251V32.5H21.8751ZM20.0001 26.25C19.8187 26.2506 19.6397 26.2909 19.4756 26.3681C19.3114 26.4453 19.1662 26.5575 19.0501 26.6969C16.6036 26.2999 14.3099 25.2491 12.4115 23.6557C10.5131 22.0624 9.08055 19.9856 8.26534 17.645C7.45013 15.3045 7.28255 12.7871 7.78034 10.3591C8.27813 7.93115 9.42277 5.68283 11.0932 3.85188L12.4376 5.19501C10.4022 7.45111 9.31079 10.4027 9.38884 13.4403C9.46688 16.4779 10.7084 19.3695 12.857 21.5181C15.0056 23.6667 17.8972 24.9082 20.9348 24.9863C23.9724 25.0643 26.924 23.9729 29.1801 21.9375L30.517 23.2744C27.9852 25.5884 24.68 26.8726 21.2501 26.875C21.1907 26.875 21.1326 26.8713 21.0739 26.8706C20.9646 26.6825 20.808 26.5262 20.6197 26.4173C20.4313 26.3084 20.2177 26.2507 20.0001 26.25Z" fill="black"/>
</svg>
