<svg width="40" height="40" viewBox="0 0 40 40" fill="none" xmlns="http://www.w3.org/2000/svg">
<path d="M36.7932 4.37501H34.6875V2.26016C34.689 2.17913 34.6743 2.09862 34.6442 2.02335C34.6141 1.94809 34.5693 1.87959 34.5124 1.82188C34.4555 1.76417 34.3877 1.7184 34.3128 1.68728C34.238 1.65616 34.1577 1.6403 34.0766 1.64063H32.0187C31.9375 1.64022 31.8571 1.65601 31.7822 1.68708C31.7072 1.71816 31.6392 1.76389 31.5822 1.8216C31.5251 1.87931 31.4802 1.94783 31.45 2.02314C31.4198 2.09845 31.4049 2.17903 31.4062 2.26016V2.57813H8.59375V2.26016C8.5951 2.17903 8.58024 2.09845 8.55003 2.02314C8.51982 1.94783 8.47488 1.87931 8.41783 1.8216C8.36079 1.76389 8.29279 1.71816 8.21784 1.68708C8.14288 1.65601 8.06247 1.64022 7.98133 1.64063H5.92336C5.84231 1.6403 5.76202 1.65616 5.68718 1.68728C5.61235 1.7184 5.54449 1.76417 5.48758 1.82188C5.43068 1.87959 5.38588 1.94809 5.35581 2.02335C5.32575 2.09862 5.31102 2.17913 5.3125 2.26016V4.37501H3.2068C3.03883 4.3789 2.87904 4.44833 2.76157 4.56846C2.6441 4.68858 2.57826 4.84988 2.57812 5.0179V6.99352C2.57812 7.33876 2.86164 7.65626 3.2068 7.65626H5.3125V9.75126C5.30881 9.91702 5.37107 10.0775 5.48561 10.1974C5.60015 10.3172 5.7576 10.3868 5.92336 10.3906H7.98133C8.08838 10.3877 8.19239 10.3545 8.28125 10.2947V29.7053C8.19239 29.6456 8.08838 29.6123 7.98133 29.6094H5.92336C5.7576 29.6133 5.60015 29.6828 5.48561 29.8027C5.37107 29.9225 5.30881 30.083 5.3125 30.2488V32.3438H3.2068C2.86164 32.3438 2.57812 32.6613 2.57812 33.0065V34.9821C2.57826 35.1501 2.6441 35.3114 2.76157 35.4316C2.87904 35.5517 3.03883 35.6211 3.2068 35.625H5.3125V37.7399C5.31102 37.8209 5.32575 37.9014 5.35581 37.9767C5.38588 38.0519 5.43068 38.1204 5.48758 38.1781C5.54449 38.2358 5.61235 38.2816 5.68718 38.3127C5.76202 38.3439 5.84231 38.3597 5.92336 38.3594H7.98133C8.06247 38.3598 8.14288 38.344 8.21784 38.3129C8.29279 38.2819 8.36079 38.2361 8.41783 38.1784C8.47488 38.1207 8.51982 38.0522 8.55003 37.9769C8.58024 37.9016 8.5951 37.821 8.59375 37.7399V37.4219H31.4062V37.7399C31.4049 37.821 31.4198 37.9016 31.45 37.9769C31.4802 38.0522 31.5251 38.1207 31.5822 38.1784C31.6392 38.2361 31.7072 38.2819 31.7822 38.3129C31.8571 38.344 31.9375 38.3598 32.0187 38.3594H34.0766C34.1577 38.3597 34.238 38.3439 34.3128 38.3127C34.3877 38.2816 34.4555 38.2358 34.5124 38.1781C34.5693 38.1204 34.6141 38.0519 34.6442 37.9767C34.6743 37.9014 34.689 37.8209 34.6875 37.7399V35.625H36.7932C36.9612 35.6211 37.121 35.5517 37.2384 35.4316C37.3559 35.3114 37.4217 35.1501 37.4219 34.9821V33.0065C37.4219 32.6613 37.1384 32.3438 36.7932 32.3438H34.6875V30.2488C34.6912 30.083 34.6289 29.9225 34.5144 29.8027C34.3998 29.6828 34.2424 29.6133 34.0766 29.6094H32.0187C31.8527 29.6132 31.6951 29.6826 31.5803 29.8024C31.4655 29.9223 31.4029 30.0828 31.4062 30.2488V30.5469H31.25V9.45313H31.4062V9.75126C31.4029 9.9172 31.4655 10.0777 31.5803 10.1976C31.6951 10.3174 31.8527 10.3869 32.0187 10.3906H34.0766C34.2424 10.3868 34.3998 10.3172 34.5144 10.1974C34.6289 10.0775 34.6912 9.91702 34.6875 9.75126V7.65626H36.7932C37.1384 7.65626 37.4219 7.33876 37.4219 6.99352V5.0179C37.4217 4.84988 37.3559 4.68858 37.2384 4.56846C37.121 4.44833 36.9612 4.3789 36.7932 4.37501ZM3.82812 6.40626V5.62501H5.3125V6.40626H3.82812ZM7.34375 9.14063H6.5625V2.89063H7.34375V9.14063ZM3.82812 34.375V33.5938H5.3125V34.375H3.82812ZM7.34375 37.1094H6.5625V30.8594H7.34375V37.1094ZM36.1719 33.5938V34.375H34.6875V33.5938H36.1719ZM32.6562 30.8594H33.4375V37.1094H32.6562V30.8594ZM31.4062 36.1719H8.59375V31.7969H31.4062V36.1719ZM30 30.5469H9.53125V9.45313H30V30.5469ZM8.59375 8.20313V3.82813H31.4062V8.20313H8.59375ZM33.4375 9.14063H32.6562V2.89063H33.4375V9.14063ZM36.1719 6.40626H34.6875V5.62501H36.1719V6.40626Z" fill="black"/>
<path d="M15.9377 13.8281H16.4064V15.0969C14.5209 16.3965 13.3633 18.6779 13.3633 21.1395C13.3633 23.5443 14.5731 25.8765 16.472 27.1827L16.4859 28.7555C16.4874 28.9203 16.5539 29.0779 16.6709 29.1939C16.788 29.3099 16.9461 29.375 17.1109 29.375H22.9689C23.1347 29.375 23.2936 29.3092 23.4108 29.1919C23.5281 29.0747 23.5939 28.9158 23.5939 28.75V27.1669C25.4387 25.9786 26.614 23.6528 26.614 21.1364C26.614 18.6711 25.4058 16.3877 23.4377 15.0889V13.8281H23.9845C24.1503 13.8281 24.3093 13.7623 24.4265 13.6451C24.5437 13.5279 24.6095 13.3689 24.6095 13.2031V11.3281C24.6095 11.1624 24.5437 11.0034 24.4265 10.8862C24.3093 10.769 24.1503 10.7031 23.9845 10.7031H15.9377C15.7719 10.7031 15.6129 10.769 15.4957 10.8862C15.3785 11.0034 15.3127 11.1624 15.3127 11.3281V13.2031C15.3127 13.3689 15.3785 13.5279 15.4957 13.6451C15.6129 13.7623 15.7719 13.8281 15.9377 13.8281ZM25.2205 19.8292C25.1736 19.8752 25.1302 19.9203 25.0903 19.962C24.9054 20.1566 24.868 20.1808 24.7573 20.1808C24.6465 20.1808 24.6088 20.1563 24.4242 19.962C24.1941 19.7198 23.8461 19.3538 23.185 19.3538C22.5239 19.3538 22.1759 19.7198 21.9459 19.962C21.761 20.1566 21.7237 20.1808 21.613 20.1808C21.5023 20.1808 21.4649 20.1563 21.28 19.962C21.0499 19.7198 20.7019 19.3538 20.0409 19.3538C19.3798 19.3538 19.0318 19.7198 18.8017 19.962C18.6169 20.1566 18.5795 20.1808 18.4688 20.1808C18.3581 20.1808 18.3204 20.1563 18.1359 19.962C17.9059 19.7198 17.5578 19.3538 16.8968 19.3538C16.2358 19.3538 15.8878 19.7198 15.6577 19.9621C15.473 20.1566 15.4356 20.1809 15.325 20.1809C15.2144 20.1809 15.177 20.1563 14.9922 19.9621C14.9266 19.8931 14.8536 19.8172 14.7689 19.7426C14.8949 19.1789 15.0964 18.6348 15.368 18.125H24.5728C24.8711 18.6582 25.0893 19.2325 25.2205 19.8292ZM14.6152 21.2589C14.8335 21.3753 15.0777 21.4344 15.325 21.4308C15.9863 21.4308 16.334 21.0648 16.5641 20.8225C16.7489 20.628 16.7862 20.6038 16.8968 20.6038C17.0074 20.6038 17.0452 20.6284 17.2297 20.823C17.4598 21.0652 17.8078 21.4312 18.4688 21.4312C19.1298 21.4312 19.4779 21.0652 19.708 20.823C19.8928 20.6284 19.9302 20.6038 20.0409 20.6038C20.1516 20.6038 20.1889 20.6284 20.3738 20.823C20.6039 21.0652 20.9519 21.4312 21.613 21.4312C22.2741 21.4312 22.622 21.0652 22.8521 20.823C23.037 20.6284 23.0743 20.6038 23.185 20.6038C23.2957 20.6038 23.3334 20.6284 23.518 20.823C23.7481 21.0652 24.0962 21.4312 24.7573 21.4312C24.9649 21.4335 25.1708 21.3922 25.3615 21.31C25.3503 21.7632 25.2939 22.2142 25.1931 22.6562H14.8044C14.6884 22.1993 14.6249 21.7306 14.6152 21.2592V21.2589ZM22.7793 26.2009C22.6529 26.2412 22.5425 26.3206 22.4642 26.4278C22.386 26.5349 22.3438 26.6642 22.3439 26.7969V28.125H17.7304L17.7189 26.8359C17.718 26.7297 17.6899 26.6254 17.6375 26.5329C17.585 26.4405 17.5098 26.363 17.4191 26.3077C16.4891 25.7263 15.7426 24.8938 15.2658 23.9062H24.7701C24.319 24.8873 23.6318 25.6983 22.779 26.2013L22.7793 26.2009ZM23.6416 16.875H16.2559C16.5798 16.5243 16.9502 16.2197 17.3569 15.9696C17.4483 15.9138 17.5239 15.8354 17.5764 15.742C17.6288 15.6486 17.6564 15.5432 17.6564 15.4361V14.9219H22.1877V15.4361C22.1877 15.5452 22.2163 15.6525 22.2706 15.7471C22.3249 15.8418 22.403 15.9206 22.4973 15.9756C22.9173 16.2227 23.3022 16.5252 23.6416 16.875ZM16.5627 11.9531H23.3595V12.5781H22.8127C22.6469 12.5781 22.4879 12.644 22.3707 12.7612C22.2535 12.8784 22.1877 13.0374 22.1877 13.2031V13.6719H17.6564V13.2031C17.6564 13.0374 17.5906 12.8784 17.4733 12.7612C17.3561 12.644 17.1972 12.5781 17.0314 12.5781H16.5627V11.9531Z" fill="black"/>
</svg>
