<svg width="40" height="40" viewBox="0 0 40 40" fill="none" xmlns="http://www.w3.org/2000/svg">
<path d="M28.0187 10.2313H22.6749C22.2102 10.2313 21.7644 10.4155 21.4353 10.7435C21.1061 11.0715 20.9203 11.5166 20.9187 11.9813V22.6751C20.9203 23.1398 21.1061 23.5849 21.4353 23.9129C21.7644 24.2409 22.2102 24.4251 22.6749 24.4251H26.2499V26.3001H19.0812V22.6751C19.0812 22.2093 18.8961 21.7626 18.5668 21.4332C18.2374 21.1039 17.7907 20.9188 17.3249 20.9188H13.7499V19.0813H17.3374C17.8021 19.0813 18.2479 18.8972 18.5771 18.5691C18.9062 18.2411 19.092 17.796 19.0937 17.3313V11.9813C19.067 11.5345 18.8706 11.1147 18.5448 10.8077C18.2189 10.5007 17.7882 10.3298 17.3405 10.3298C16.8929 10.3298 16.4621 10.5007 16.1363 10.8077C15.8104 11.1147 15.6141 11.5345 15.5874 11.9813V15.5751H13.7499V11.9813C13.7232 11.5345 13.5269 11.1147 13.201 10.8077C12.8752 10.5007 12.4444 10.3298 11.9968 10.3298C11.5491 10.3298 11.1184 10.5007 10.7925 10.8077C10.4667 11.1147 10.2703 11.5345 10.2437 11.9813V28.0188C10.2453 28.4824 10.4302 28.9266 10.758 29.2544C11.0859 29.5823 11.53 29.7672 11.9937 29.7688H28.0187C28.4823 29.7672 28.9264 29.5823 29.2543 29.2544C29.5821 28.9266 29.767 28.4824 29.7687 28.0188V22.6751C29.7687 22.2104 29.5845 21.7646 29.2565 21.4354C28.9285 21.1062 28.4834 20.9205 28.0187 20.9188H24.4249V19.0813H28.0187C28.4823 19.0797 28.9264 18.8948 29.2543 18.5669C29.5821 18.2391 29.767 17.7949 29.7687 17.3313V11.9813C29.767 11.5177 29.5821 11.0735 29.2543 10.7457C28.9264 10.4179 28.4823 10.233 28.0187 10.2313ZM28.5187 17.3313C28.5187 17.4639 28.466 17.5911 28.3722 17.6849C28.2784 17.7786 28.1513 17.8313 28.0187 17.8313H23.7999C23.6341 17.8313 23.4752 17.8972 23.358 18.0144C23.2408 18.1316 23.1749 18.2906 23.1749 18.4563V21.5438C23.1749 21.7096 23.2408 21.8686 23.358 21.9858C23.4752 22.103 23.6341 22.1688 23.7999 22.1688H28.0187C28.0848 22.1688 28.1504 22.182 28.2114 22.2075C28.2725 22.233 28.3279 22.2704 28.3744 22.3175C28.4209 22.3646 28.4576 22.4204 28.4824 22.4818C28.5072 22.5432 28.5195 22.6089 28.5187 22.6751V28.0188C28.5187 28.1514 28.466 28.2786 28.3722 28.3724C28.2784 28.4661 28.1513 28.5188 28.0187 28.5188H11.9812C11.8485 28.5188 11.7214 28.4661 11.6276 28.3724C11.5338 28.2786 11.4812 28.1514 11.4812 28.0188V11.9813C11.495 11.8576 11.5539 11.7432 11.6467 11.6602C11.7396 11.5771 11.8597 11.5312 11.9843 11.5312C12.1088 11.5312 12.229 11.5771 12.3218 11.6602C12.4146 11.7432 12.4736 11.8576 12.4874 11.9813V16.2001C12.4874 16.3658 12.5533 16.5248 12.6705 16.642C12.7877 16.7592 12.9466 16.8251 13.1124 16.8251H16.1999C16.3657 16.8251 16.5246 16.7592 16.6418 16.642C16.7591 16.5248 16.8249 16.3658 16.8249 16.2001V11.9813C16.8387 11.8576 16.8977 11.7432 16.9905 11.6602C17.0833 11.5771 17.2035 11.5312 17.328 11.5312C17.4526 11.5312 17.5727 11.5771 17.6656 11.6602C17.7584 11.7432 17.8173 11.8576 17.8312 11.9813V17.3313C17.8312 17.3975 17.818 17.463 17.7925 17.5241C17.767 17.5852 17.7296 17.6406 17.6825 17.6871C17.6354 17.7336 17.5796 17.7703 17.5182 17.7951C17.4568 17.8198 17.3911 17.8322 17.3249 17.8313H13.1249C12.9591 17.8313 12.8002 17.8972 12.683 18.0144C12.5658 18.1316 12.4999 18.2906 12.4999 18.4563V21.5438C12.4999 21.7096 12.5658 21.8686 12.683 21.9858C12.8002 22.103 12.9591 22.1688 13.1249 22.1688H17.3374C17.4039 22.1688 17.4697 22.1819 17.5311 22.2074C17.5926 22.2328 17.6484 22.2701 17.6954 22.3171C17.7424 22.3641 17.7797 22.4199 17.8051 22.4813C17.8306 22.5428 17.8437 22.6086 17.8437 22.6751V26.8751C17.8437 27.0408 17.9095 27.1998 18.0267 27.317C18.1439 27.4342 18.3029 27.5001 18.4687 27.5001H26.8749C27.0407 27.5001 27.1996 27.4342 27.3168 27.317C27.4341 27.1998 27.4999 27.0408 27.4999 26.8751V23.7501C27.4999 23.5843 27.4341 23.4253 27.3168 23.3081C27.1996 23.1909 27.0407 23.1251 26.8749 23.1251H22.6749C22.6087 23.1259 22.543 23.1136 22.4816 23.0888C22.4203 23.0641 22.3644 23.0274 22.3173 22.9809C22.2702 22.9343 22.2328 22.8789 22.2073 22.8179C22.1818 22.7568 22.1686 22.6913 22.1687 22.6251V11.9813C22.1686 11.9151 22.1818 11.8496 22.2073 11.7885C22.2328 11.7275 22.2702 11.6721 22.3173 11.6255C22.3644 11.579 22.4203 11.5423 22.4816 11.5176C22.543 11.4928 22.6087 11.4805 22.6749 11.4813H28.0187C28.1513 11.4813 28.2784 11.534 28.3722 11.6278C28.466 11.7215 28.5187 11.8487 28.5187 11.9813V17.3313Z" fill="black"/>
<path d="M16.2 23.175H13.125C12.9592 23.175 12.8003 23.2408 12.6831 23.3581C12.5658 23.4753 12.5 23.6342 12.5 23.8V26.925C12.5 27.0908 12.5658 27.2497 12.6831 27.3669C12.8003 27.4842 12.9592 27.55 13.125 27.55H16.2125C16.3783 27.55 16.5372 27.4842 16.6544 27.3669C16.7717 27.2497 16.8375 27.0908 16.8375 26.925V23.8C16.8375 23.7169 16.8209 23.6346 16.7888 23.5579C16.7566 23.4812 16.7094 23.4118 16.65 23.3536C16.5907 23.2954 16.5203 23.2496 16.443 23.2189C16.3657 23.1883 16.2831 23.1733 16.2 23.175ZM15.575 26.3H13.75V24.425H15.5875L15.575 26.3ZM26.875 12.5H23.8C23.6342 12.5 23.4753 12.5658 23.3581 12.6831C23.2408 12.8003 23.175 12.9592 23.175 13.125V16.25C23.175 16.4158 23.2408 16.5747 23.3581 16.6919C23.4753 16.8092 23.6342 16.875 23.8 16.875H26.875C27.0408 16.875 27.1997 16.8092 27.3169 16.6919C27.4342 16.5747 27.5 16.4158 27.5 16.25V13.125C27.5 12.9592 27.4342 12.8003 27.3169 12.6831C27.1997 12.5658 27.0408 12.5 26.875 12.5ZM26.25 15.625H24.425V13.75H26.25V15.625Z" fill="black"/>
<path d="M32.9997 14.6125V7.62496C32.9997 7.4592 32.9339 7.30023 32.8167 7.18302C32.6994 7.06581 32.5405 6.99996 32.3747 6.99996H25.381L20.4435 2.05621C20.3854 1.99763 20.3162 1.95114 20.2401 1.9194C20.1639 1.88767 20.0822 1.87134 19.9997 1.87134C19.9172 1.87134 19.8355 1.88767 19.7594 1.9194C19.6832 1.95114 19.6141 1.99763 19.556 2.05621L14.6185 6.99996H7.62472C7.45896 6.99996 7.29999 7.06581 7.18278 7.18302C7.06557 7.30023 6.99972 7.4592 6.99972 7.62496V14.6125L2.05597 19.5562C1.99739 19.6143 1.95089 19.6834 1.91916 19.7596C1.88743 19.8358 1.87109 19.9175 1.87109 20C1.87109 20.0825 1.88743 20.1642 1.91916 20.2403C1.95089 20.3165 1.99739 20.3856 2.05597 20.4437L6.99972 25.3875V32.375C6.99972 32.5407 7.06557 32.6997 7.18278 32.8169C7.29999 32.9341 7.45896 33 7.62472 33H14.6185L19.556 37.9437C19.6141 38.0023 19.6832 38.0488 19.7594 38.0805C19.8355 38.1122 19.9172 38.1286 19.9997 38.1286C20.0822 38.1286 20.1639 38.1122 20.2401 38.0805C20.3162 38.0488 20.3854 38.0023 20.4435 37.9437L25.381 33H32.3747C32.5405 33 32.6994 32.9341 32.8167 32.8169C32.9339 32.6997 32.9997 32.5407 32.9997 32.375V25.3875L37.9435 20.4437C38.002 20.3856 38.0485 20.3165 38.0803 20.2403C38.112 20.1642 38.1283 20.0825 38.1283 20C38.1283 19.9175 38.112 19.8358 38.0803 19.7596C38.0485 19.6834 38.002 19.6143 37.9435 19.5562L32.9997 14.6125ZM31.931 24.6812C31.873 24.7396 31.8272 24.8089 31.7961 24.885C31.765 24.9612 31.7492 25.0427 31.7497 25.125V31.75H25.1247C25.0425 31.7495 24.9609 31.7653 24.8848 31.7964C24.8086 31.8275 24.7394 31.8733 24.681 31.9312L19.9997 36.6187L15.3185 31.9312C15.2601 31.8733 15.1908 31.8275 15.1147 31.7964C15.0385 31.7653 14.957 31.7495 14.8747 31.75H8.24972V25.125C8.25019 25.0427 8.23443 24.9612 8.20332 24.885C8.17222 24.8089 8.12639 24.7396 8.06847 24.6812L3.38097 20L8.06847 15.3187C8.12639 15.2603 8.17222 15.1911 8.20332 15.1149C8.23443 15.0388 8.25019 14.9572 8.24972 14.875V8.24996H14.8747C14.957 8.25044 15.0385 8.23467 15.1147 8.20357C15.1908 8.17247 15.2601 8.12664 15.3185 8.06871L19.9997 3.38121L24.681 8.06871C24.7394 8.12664 24.8086 8.17247 24.8848 8.20357C24.9609 8.23467 25.0425 8.25044 25.1247 8.24996H31.7497V14.875C31.7492 14.9572 31.765 15.0388 31.7961 15.1149C31.8272 15.1911 31.873 15.2603 31.931 15.3187L36.6185 20L31.931 24.6812Z" fill="black"/>
</svg>
