<svg width="40" height="40" viewBox="0 0 40 40" fill="none" xmlns="http://www.w3.org/2000/svg">
<path d="M20.7252 38.5562H3.35645C3.1078 38.5562 2.86935 38.4575 2.69353 38.2816C2.51772 38.1058 2.41895 37.8674 2.41895 37.6187V33.75C2.41895 33.5013 2.51772 33.2629 2.69353 33.0871C2.86935 32.9112 3.1078 32.8125 3.35645 32.8125H13.7502C13.9988 32.8125 14.2373 32.9112 14.4131 33.0871C14.5889 33.2629 14.6877 33.5013 14.6877 33.75C14.6877 33.9986 14.5889 34.2371 14.4131 34.4129C14.2373 34.5887 13.9988 34.6875 13.7502 34.6875H4.29395V36.7062H19.7877V34.6625H18.4502C18.2016 34.6625 17.9631 34.5637 17.7873 34.3879C17.6115 34.2121 17.5127 33.9736 17.5127 33.725C17.5127 33.4763 17.6115 33.2379 17.7873 33.0621C17.9631 32.8862 18.2016 32.7875 18.4502 32.7875H20.7252C20.9738 32.7875 21.2123 32.8862 21.3881 33.0621C21.5639 33.2379 21.6627 33.4763 21.6627 33.725V37.6187C21.6627 37.8674 21.5639 38.1058 21.3881 38.2816C21.2123 38.4575 20.9738 38.5562 20.7252 38.5562Z" fill="#222222"/>
<path d="M18.4501 34.6626C18.2036 34.666 17.9656 34.5721 17.7878 34.4013C17.61 34.2305 17.5066 33.9966 17.5001 33.7501V30.7689H6.56885V33.7501C6.56885 33.9988 6.47008 34.2372 6.29426 34.413C6.11844 34.5888 5.87999 34.6876 5.63135 34.6876C5.38271 34.6876 5.14425 34.5888 4.96843 34.413C4.79262 34.2372 4.69385 33.9988 4.69385 33.7501V29.8314C4.69384 29.5838 4.79176 29.3463 4.96622 29.1707C5.14069 28.995 5.37754 28.8955 5.6251 28.8939H18.4501C18.6987 28.8939 18.9372 28.9926 19.113 29.1685C19.2888 29.3443 19.3876 29.5827 19.3876 29.8314V33.7501C19.3811 33.9944 19.2794 34.2265 19.1043 34.3969C18.9292 34.5674 18.6945 34.6627 18.4501 34.6626ZM14.2376 23.2189C14.0523 23.2187 13.8712 23.1636 13.7172 23.0606C13.5632 22.9576 13.4431 22.8112 13.3722 22.64C13.3013 22.4688 13.2828 22.2804 13.3189 22.0987C13.355 21.917 13.4442 21.75 13.5751 21.6189L23.7063 11.4814C23.7933 11.394 23.8967 11.3245 24.0105 11.2771C24.1244 11.2296 24.2464 11.205 24.3698 11.2047C24.4931 11.2045 24.6153 11.2285 24.7293 11.2754C24.8434 11.3223 24.9471 11.3912 25.0345 11.4782C25.1219 11.5652 25.1913 11.6686 25.2388 11.7824C25.2862 11.8963 25.3108 12.0183 25.3111 12.1417C25.3114 12.265 25.2874 12.3872 25.2405 12.5012C25.1935 12.6153 25.1246 12.719 25.0376 12.8064L14.9001 22.9439C14.7233 23.118 14.4857 23.2166 14.2376 23.2189ZM7.8001 16.7814C7.67677 16.783 7.5544 16.7595 7.44048 16.7122C7.32656 16.6649 7.2235 16.5949 7.1376 16.5064C7.04992 16.4198 6.9803 16.3166 6.93279 16.2029C6.88528 16.0891 6.86081 15.9671 6.86081 15.8439C6.86081 15.7206 6.88528 15.5986 6.93279 15.4849C6.9803 15.3711 7.04992 15.268 7.1376 15.1814L17.2751 5.04387C17.3609 4.95176 17.4644 4.87788 17.5794 4.82664C17.6944 4.7754 17.8186 4.74785 17.9444 4.74563C18.0703 4.74341 18.1954 4.76656 18.3121 4.81372C18.4288 4.86087 18.5349 4.93105 18.6239 5.02007C18.7129 5.10909 18.7831 5.21514 18.8302 5.33187C18.8774 5.44861 18.9006 5.57364 18.8983 5.69952C18.8961 5.8254 18.8686 5.94954 18.8173 6.06454C18.7661 6.17954 18.6922 6.28304 18.6001 6.36887L8.4626 16.5064C8.37626 16.5943 8.27311 16.664 8.15929 16.7112C8.04548 16.7584 7.92332 16.7823 7.8001 16.7814Z" fill="#222222"/>
<path d="M25.1249 13.8312C25.0016 13.8329 24.8792 13.8093 24.7653 13.7621C24.6514 13.7148 24.5483 13.6447 24.4624 13.5562L23.7062 12.8062C23.5305 12.6297 23.4321 12.3906 23.4327 12.1415C23.4333 11.8924 23.5328 11.6538 23.7093 11.4781C23.8858 11.3024 24.1249 11.204 24.374 11.2046C24.6231 11.2052 24.8617 11.3047 25.0374 11.4812L25.1249 11.5687L26.3749 10.3187L19.7624 3.70621L18.5124 4.95621L22.3249 8.76871C22.499 8.94529 22.5966 9.18327 22.5966 9.43121C22.5966 9.67915 22.499 9.91713 22.3249 10.0937C22.2383 10.1814 22.1352 10.251 22.0214 10.2985C21.9077 10.346 21.7857 10.3705 21.6624 10.3705C21.5392 10.3705 21.4172 10.346 21.3034 10.2985C21.1897 10.251 21.0865 10.1814 20.9999 10.0937L16.5249 5.62496C16.4373 5.53835 16.3676 5.43519 16.3201 5.32146C16.2726 5.20774 16.2481 5.08571 16.2481 4.96246C16.2481 4.83921 16.2726 4.71719 16.3201 4.60347C16.3676 4.48974 16.4373 4.38658 16.5249 4.29996L19.0937 1.72496C19.2743 1.55625 19.5122 1.4624 19.7593 1.4624C20.0064 1.4624 20.2444 1.55625 20.4249 1.72496L28.3624 9.66246C28.5371 9.83888 28.6359 10.0767 28.6374 10.325C28.6372 10.5735 28.5383 10.8118 28.3624 10.9875L25.7874 13.5625C25.7004 13.649 25.5969 13.7173 25.4832 13.7634C25.3695 13.8096 25.2477 13.8326 25.1249 13.8312ZM12.4124 26.5437C12.288 26.5415 12.1652 26.5144 12.0514 26.4639C11.9376 26.4135 11.8351 26.3407 11.7499 26.25L3.81243 18.3312C3.72475 18.2446 3.65514 18.1414 3.60762 18.0277C3.56011 17.914 3.53564 17.792 3.53564 17.6687C3.53564 17.5455 3.56011 17.4234 3.60762 17.3097C3.65514 17.196 3.72475 17.0928 3.81243 17.0062L6.38743 14.4312C6.47405 14.3435 6.57721 14.2739 6.69093 14.2264C6.80466 14.1789 6.92668 14.1544 7.04993 14.1544C7.17318 14.1544 7.29521 14.1789 7.40893 14.2264C7.52265 14.2739 7.62581 14.3435 7.71243 14.4312L8.46243 15.1812C8.55454 15.267 8.62842 15.3705 8.67966 15.4855C8.7309 15.6005 8.75845 15.7247 8.76067 15.8506C8.76289 15.9764 8.73974 16.1015 8.69259 16.2182C8.64543 16.3349 8.57525 16.441 8.48623 16.53C8.39721 16.619 8.29116 16.6892 8.17443 16.7364C8.05769 16.7835 7.93266 16.8067 7.80678 16.8045C7.6809 16.8022 7.55676 16.7747 7.44176 16.7234C7.32676 16.6722 7.22326 16.5983 7.13743 16.5062L7.04993 16.4187L5.79993 17.6687L12.4124 24.2812L13.6624 23.0312L10.2937 19.6687C10.1196 19.4921 10.0221 19.2542 10.0221 19.0062C10.0221 18.7583 10.1196 18.5203 10.2937 18.3437C10.3803 18.256 10.4835 18.1864 10.5972 18.1389C10.7109 18.0914 10.8329 18.0669 10.9562 18.0669C11.0794 18.0669 11.2015 18.0914 11.3152 18.1389C11.4289 18.1864 11.5321 18.256 11.6187 18.3437L15.6249 22.3687C15.8005 22.5445 15.8991 22.7828 15.8991 23.0312C15.8991 23.2797 15.8005 23.5179 15.6249 23.6937L13.0749 26.25C12.9893 26.3402 12.8867 26.4126 12.773 26.463C12.6593 26.5134 12.5368 26.5408 12.4124 26.5437ZM34.9374 35.4312C34.5891 35.4329 34.2439 35.3652 33.922 35.2322C33.6001 35.0991 33.3079 34.9033 33.0624 34.6562L17.4374 19.0812C17.3484 18.9954 17.2776 18.8925 17.2292 18.7787C17.1809 18.6648 17.1561 18.5424 17.1562 18.4187C17.1564 18.1702 17.2553 17.9319 17.4312 17.7562L19.8499 15.3437C19.9365 15.256 20.0397 15.1864 20.1534 15.1389C20.2672 15.0914 20.3892 15.0669 20.5124 15.0669C20.6357 15.0669 20.7577 15.0914 20.8714 15.1389C20.9852 15.1864 21.0883 15.256 21.1749 15.3437L36.7999 30.9125C37.0464 31.1586 37.2418 31.4509 37.3752 31.7726C37.5086 32.0943 37.5773 32.4392 37.5773 32.7875C37.5773 33.1357 37.5086 33.4806 37.3752 33.8023C37.2418 34.1241 37.0464 34.4163 36.7999 34.6625C36.5554 34.907 36.265 35.1007 35.9454 35.2327C35.6258 35.3646 35.2832 35.4321 34.9374 35.4312ZM19.4249 18.4187L34.3749 33.3312C34.5221 33.4696 34.7166 33.5467 34.9187 33.5467C35.1208 33.5467 35.3152 33.4696 35.4624 33.3312C35.606 33.1866 35.6868 32.9912 35.6874 32.7875C35.6875 32.6865 35.6676 32.5865 35.629 32.4932C35.5904 32.3999 35.5338 32.3151 35.4624 32.2437L20.4624 17.3312L19.4249 18.4187Z" fill="#222222"/>
</svg>
