<svg width="40" height="40" viewBox="0 0 40 40" fill="none" xmlns="http://www.w3.org/2000/svg">
<g clip-path="url(#clip0_89_681)">
<path d="M39.5058 21.8175C38.2578 18.4035 34.7738 16.3655 30.1838 16.3655C30.0038 16.3655 29.8318 16.3695 29.6598 16.3775L29.6278 12.2515L36.6778 11.0375C36.9078 10.9995 36.9438 10.7995 36.8958 10.5755C36.8498 10.3535 36.5618 8.80954 36.5198 8.62354C36.4658 8.36154 36.3158 8.36954 36.1058 8.40554C35.8978 8.44154 29.6058 9.32754 29.6058 9.32754L29.5798 5.17154C29.5778 4.92154 29.4418 4.85554 29.1918 4.85954L27.1418 4.89154C26.9318 4.89554 26.8138 4.98954 26.8178 5.18754L26.8838 9.80154C26.8838 9.80154 20.7618 10.8555 20.5958 10.8875C20.4278 10.9155 20.2558 10.9935 20.2938 11.1735C20.3318 11.3535 20.6738 13.3615 20.7098 13.5175C20.7458 13.6775 20.8538 13.7755 21.0858 13.7315L26.9338 12.7235L27.0038 16.7595C24.8498 17.3215 23.4018 18.4075 22.4918 19.3655C20.9558 20.9795 20.0778 23.1395 20.0778 25.2915C20.0778 28.4635 22.0198 30.3495 24.7338 30.6815C31.0578 31.4555 34.9718 24.5615 36.2718 21.2515C38.4658 24.2635 36.7838 29.9595 32.0838 33.2115C31.9978 33.2695 31.8878 33.4695 32.0178 33.6255L33.2558 35.1375C33.4158 35.3295 33.6678 35.2555 33.7678 35.1835C38.7878 31.7235 41.0898 26.1535 39.5058 21.8175ZM24.7338 28.1935C22.8018 27.9515 22.8458 26.3655 22.8458 25.2875C22.8458 23.7415 23.4998 22.1275 24.5978 20.9755C25.2829 20.2604 26.1242 19.7135 27.0558 19.3775L27.2198 27.9315C26.4498 28.1935 25.6218 28.3015 24.7338 28.1935ZM29.5878 27.0875L29.6798 18.8695C29.8478 18.8615 30.0118 18.8495 30.1838 18.8495C31.7298 18.8495 33.1718 19.1395 33.9538 19.5715C34.7358 20.0055 31.9078 24.9975 29.5878 27.0875ZM11.6878 11.7515C11.6648 11.666 11.6136 11.5908 11.5424 11.5382C11.4712 11.4855 11.3843 11.4585 11.2958 11.4615H7.39583C7.30812 11.4586 7.22199 11.4855 7.15152 11.5378C7.08105 11.5901 7.0304 11.6647 7.00783 11.7495L0.015828 33.8315C-0.018172 33.9335 -0.00617196 33.9835 0.139828 33.9835H3.60583C3.75583 33.9835 3.80383 33.9375 3.83383 33.8395L5.84983 27.2035H12.8418L14.8578 33.8395C14.8898 33.9375 14.9358 33.9835 15.0838 33.9835H18.5518C18.6958 33.9835 18.7078 33.9335 18.6758 33.8315C18.6478 33.7315 12.5098 14.3495 11.6878 11.7515ZM6.45183 24.3875L9.34583 13.8875L12.2398 24.3875H6.45183Z" fill="black"/>
</g>
<defs>
<clipPath id="clip0_89_681">
<rect width="40" height="40" fill="white"/>
</clipPath>
</defs>
</svg>
