<svg width="40" height="40" viewBox="0 0 40 40" fill="none" xmlns="http://www.w3.org/2000/svg">
<path d="M12.3203 35.3516C9.82031 35.3516 7.3125 35.3516 4.8125 35.3516C4.24219 35.3516 3.67188 35.3516 3.10156 35.3516C2.72656 35.3516 2.32813 35.3985 2.04688 35.086C1.72656 34.7188 1.85156 33.961 1.85156 33.5079C1.85156 30.9376 1.85156 28.3672 1.85156 25.7969C1.85156 22.5782 1.85156 19.3672 1.85156 16.1485C1.85156 14.5704 1.77344 12.9688 1.85156 11.3907C1.88281 10.8126 2.33594 10.6016 2.84375 10.6016C3.32031 10.6016 3.80469 10.6016 4.28125 10.6016C5.86719 10.6016 7.45312 10.6016 9.03125 10.6016C10.0938 10.6016 11.1641 10.5782 12.2266 10.6016C13.0859 10.6172 13.0938 11.3438 13.0938 11.9766C13.0938 14.3126 13.0938 16.6485 13.0938 18.9844C13.0938 22.2501 13.0938 25.5157 13.0938 28.7813C13.0938 30.6876 13.1094 32.5938 13.0938 34.5001C13.0859 34.9532 12.8125 35.3282 12.3203 35.3516C11.5703 35.3829 11.5625 36.5547 12.3203 36.5235C13.4062 36.4844 14.2344 35.6563 14.2656 34.5626C14.2734 34.3907 14.2656 34.2188 14.2656 34.0469C14.2656 33.1016 14.2656 32.1485 14.2656 31.2032C14.2656 27.9844 14.2656 24.7657 14.2656 21.5547C14.2656 18.6954 14.2656 15.836 14.2656 12.9688C14.2656 12.4532 14.2812 11.9297 14.2656 11.4141C14.2344 10.3047 13.3828 9.45318 12.2734 9.42193C11.9688 9.41412 11.6562 9.42193 11.3516 9.42193C8.51562 9.42193 5.6875 9.42193 2.85156 9.42193C1.5625 9.42193 0.6875 10.2891 0.6875 11.5782C0.6875 12.3438 0.6875 13.1172 0.6875 13.8829C0.6875 16.961 0.6875 20.0469 0.6875 23.1251C0.6875 26.1719 0.6875 29.211 0.6875 32.2579C0.6875 32.9766 0.6875 33.6954 0.6875 34.4141C0.6875 34.9688 0.835937 35.4922 1.22656 35.9063C1.69531 36.3985 2.30469 36.5157 2.94531 36.5157C5.8125 36.5157 8.67969 36.5157 11.5469 36.5157C11.8047 36.5157 12.0703 36.5157 12.3281 36.5157C13.0703 36.5235 13.0703 35.3516 12.3203 35.3516Z" fill="black"/>
<path d="M19.8438 35.3516C18.6172 35.3516 17.3907 35.3516 16.1563 35.3516C15.7501 35.3516 15.1563 35.4531 14.7657 35.2969C14.3907 35.1484 14.2657 34.8047 14.2579 34.4375C14.2501 32.7187 14.2579 31 14.2579 29.2812C14.2579 26.1484 14.2579 23.0234 14.2579 19.8906C14.2579 16.8672 14.2579 13.8359 14.2579 10.8125C14.2579 9.82031 14.2579 8.82813 14.2579 7.84375C14.2579 7.46875 14.2344 7.08594 14.2579 6.71094C14.3047 6.03125 14.8594 5.94531 15.4063 5.94531C16.1251 5.94531 16.8438 5.94531 17.5626 5.94531C18.2344 5.94531 18.8985 5.94531 19.5704 5.94531C20.1016 5.94531 20.5782 6.15625 20.6094 6.76562C20.6719 8.20312 20.6094 9.65625 20.6094 11.0938C20.6094 14.1406 20.6094 17.1953 20.6094 20.2422C20.6094 23.3594 20.6094 26.4766 20.6094 29.5937C20.6094 31.2344 20.6251 32.875 20.6094 34.5156C20.6094 34.9609 20.3204 35.3359 19.8438 35.3516C19.0938 35.3828 19.086 36.5547 19.8438 36.5234C20.9297 36.4844 21.7579 35.6562 21.7891 34.5703C21.7969 34.4297 21.7891 34.2812 21.7891 34.1406C21.7891 33.3438 21.7891 32.5391 21.7891 31.7422C21.7891 28.7891 21.7891 25.8438 21.7891 22.8906C21.7891 19.5703 21.7891 16.2578 21.7891 12.9375C21.7891 10.9609 21.7891 8.99219 21.7891 7.01563C21.7891 6.78906 21.7891 6.57031 21.7422 6.33594C21.5391 5.32812 20.6172 4.77344 19.6485 4.77344C18.2266 4.77344 16.8126 4.77344 15.3907 4.77344C14.5938 4.77344 13.836 4.96094 13.3829 5.6875C13.1563 6.04688 13.0938 6.45313 13.0938 6.86719C13.0938 7.52344 13.0938 8.17188 13.0938 8.82812C13.0938 11.625 13.0938 14.4297 13.0938 17.2266C13.0938 20.5937 13.0938 23.9609 13.0938 27.3281C13.0938 29.5469 13.0938 31.7734 13.0938 33.9922C13.0938 34.1719 13.086 34.3438 13.0938 34.5234C13.1172 35.3594 13.586 36.1094 14.3907 36.4062C14.8985 36.5938 15.5079 36.5234 16.0391 36.5234C16.8594 36.5234 17.6876 36.5234 18.5079 36.5234C18.9532 36.5234 19.4063 36.5234 19.8516 36.5234C20.5938 36.5234 20.5938 35.3516 19.8438 35.3516Z" fill="black"/>
<path d="M25.1641 35.3515C24.5704 35.3515 23.9688 35.3515 23.3751 35.3515C22.8126 35.3515 22.0079 35.4844 21.8126 34.7734C21.7188 34.4219 21.7813 33.9844 21.7813 33.6328C21.7813 31.4687 21.7813 29.2969 21.7813 27.1328C21.7813 23.9765 21.7813 20.8281 21.7813 17.6719C21.7813 14.8281 21.7813 11.9922 21.7813 9.14842C21.7813 7.92186 21.7188 6.67186 21.7813 5.4453C21.8204 4.62499 22.586 4.65624 23.1954 4.65624C23.836 4.65624 24.4766 4.6328 25.1172 4.65624C25.9376 4.67967 25.9297 5.3828 25.9297 5.97655C25.9297 7.93749 25.9297 9.90624 25.9297 11.8672C25.9297 14.9609 25.9297 18.0469 25.9297 21.1406C25.9297 24.0937 25.9297 27.0469 25.9297 30C25.9297 31.5078 25.9454 33.0078 25.9297 34.5156C25.9297 34.9687 25.6407 35.3359 25.1641 35.3515C24.4141 35.3828 24.4063 36.5547 25.1641 36.5234C26.2501 36.4844 27.0704 35.664 27.1094 34.5703C27.1094 34.4453 27.1094 34.3203 27.1094 34.1953C27.1094 33.4609 27.1094 32.7187 27.1094 31.9844C27.1094 29.2187 27.1094 26.4453 27.1094 23.6797C27.1094 20.3828 27.1094 17.0859 27.1094 13.789C27.1094 11.4062 27.1094 9.02342 27.1094 6.64061C27.1094 6.24217 27.1251 5.84374 27.1094 5.4453C27.0782 4.34374 26.2344 3.51561 25.1329 3.48436C24.4922 3.46874 23.8438 3.48436 23.1954 3.48436C22.336 3.48436 21.5157 3.54686 20.9688 4.32811C20.711 4.70311 20.6172 5.1328 20.6172 5.57811C20.6172 6.16405 20.6172 6.74999 20.6172 7.33592C20.6172 9.93749 20.6172 12.539 20.6172 15.1406C20.6172 18.4453 20.6172 21.7578 20.6172 25.0625C20.6172 27.6406 20.6172 30.2187 20.6172 32.8047C20.6172 33.3594 20.6094 33.914 20.6172 34.4687C20.6172 35.0078 20.7813 35.5234 21.1563 35.9219C21.7657 36.5703 22.5704 36.5312 23.3829 36.5312C23.9766 36.5312 24.5782 36.5312 25.1719 36.5312C25.9141 36.5234 25.9141 35.3515 25.1641 35.3515Z" fill="black"/>
<path d="M31.4376 35.3515C30.3672 35.3515 29.2969 35.3515 28.2188 35.3515C27.6797 35.3515 27.1329 35.2265 27.1016 34.5624C27.0938 34.4765 27.1016 34.3984 27.1016 34.3124C27.1016 32.6796 27.1016 31.0468 27.1016 29.4062C27.1016 26.6327 27.1016 23.8671 27.1016 21.0937C27.1016 18.4999 27.1016 15.9062 27.1016 13.3124C27.1016 12.4765 27.1016 11.6406 27.1016 10.8046C27.1016 10.4687 27.0626 10.1093 27.1094 9.78118C27.1954 9.14836 27.7813 9.10149 28.2813 9.10149C28.9454 9.10149 29.6094 9.10149 30.2657 9.10149C30.9922 9.10149 32.1954 8.89055 32.211 9.96086C32.2266 11.3827 32.211 12.8046 32.211 14.2265C32.211 16.9218 32.211 19.6171 32.211 22.3124C32.211 25.0077 32.211 27.6952 32.211 30.3905C32.211 31.7656 32.2266 33.1484 32.211 34.5234C32.2032 34.9843 31.9063 35.3359 31.4376 35.3515C30.6876 35.3827 30.6797 36.5546 31.4376 36.5234C32.5157 36.4843 33.3438 35.664 33.3829 34.5781C33.3829 34.4765 33.3829 34.3671 33.3829 34.2656C33.3829 33.6015 33.3829 32.9374 33.3829 32.2734C33.3829 29.7343 33.3829 27.1874 33.3829 24.6484C33.3829 21.7187 33.3829 18.7812 33.3829 15.8515C33.3829 13.9921 33.3829 12.1406 33.3829 10.2812C33.3829 10.1562 33.3829 10.0312 33.3829 9.90618C33.3594 9.01555 32.7813 8.21086 31.8907 7.99211C31.3985 7.87493 30.836 7.93743 30.336 7.93743C29.6407 7.93743 28.9454 7.93743 28.2501 7.93743C27.5157 7.93743 26.836 8.07024 26.3516 8.67961C26.0469 9.06243 25.9297 9.51555 25.9219 9.99211C25.9141 10.5234 25.9219 11.0624 25.9219 11.5937C25.9219 13.9843 25.9219 16.3671 25.9219 18.7577C25.9219 21.7187 25.9219 24.6796 25.9219 27.6406C25.9219 29.7031 25.9219 31.7656 25.9219 33.828C25.9219 34.4374 25.8751 35.0468 26.2188 35.5937C26.6485 36.289 27.3751 36.5234 28.1485 36.5234C28.8047 36.5234 29.461 36.5234 30.1172 36.5234C30.5547 36.5234 30.9922 36.5234 31.4297 36.5234C32.1954 36.5234 32.1954 35.3515 31.4376 35.3515Z" fill="black"/>
<path d="M37.3594 35.3516C36.5391 35.3516 35.711 35.3516 34.8907 35.3516C34.2501 35.3516 33.4063 35.4141 33.3829 34.5312C33.3516 33.4844 33.3829 32.4297 33.3829 31.3828C33.3829 27.3516 33.3829 23.3125 33.3829 19.2812C33.3829 18.6562 33.3829 18.0312 33.3829 17.4062C33.3829 17.0938 33.3282 16.6875 33.4922 16.4062C33.7032 16.0391 34.0704 16.0156 34.4454 16.0156C34.9141 16.0156 35.3829 16.0156 35.8516 16.0156C36.2969 16.0156 36.7422 16.0156 37.1876 16.0156C37.5938 16.0156 37.9688 16.125 38.1172 16.5469C38.211 16.8203 38.1641 17.1875 38.1641 17.4688C38.1641 18.1094 38.1641 18.75 38.1641 19.3984C38.1641 21.375 38.1641 23.3594 38.1641 25.3359C38.1641 27.3906 38.1641 29.4531 38.1641 31.5078C38.1641 32.5156 38.2032 33.5391 38.1641 34.5469C38.1329 34.9922 37.8204 35.3359 37.3594 35.3516C36.6094 35.3828 36.6016 36.5547 37.3594 36.5234C38.5391 36.4766 39.3204 35.5625 39.3282 34.4141C39.3282 33.9297 39.3282 33.4453 39.3282 32.9609C39.3282 31.0156 39.3282 29.0625 39.3282 27.1172C39.3282 23.6953 39.3751 20.2734 39.3282 16.8594C39.3126 15.6797 38.4141 14.8438 37.2501 14.8359C36.3126 14.8281 35.3829 14.8359 34.4454 14.8359C33.9063 14.8359 33.4063 14.9141 32.961 15.2656C32.4766 15.6484 32.2344 16.2109 32.211 16.8281C32.2032 17.1797 32.211 17.5312 32.211 17.875C32.211 21.9609 32.211 26.0469 32.211 30.1328C32.211 31.5312 32.211 32.9375 32.211 34.3359C32.211 35.2812 32.6797 36.1797 33.6563 36.4453C34.0313 36.5469 34.4376 36.5156 34.8282 36.5156C35.3672 36.5156 35.9063 36.5156 36.4454 36.5156C36.7501 36.5156 37.0547 36.5156 37.3594 36.5156C38.1172 36.5234 38.1172 35.3516 37.3594 35.3516ZM9.21099 24.3281C8.20318 24.3281 7.18755 24.3281 6.17974 24.3281C5.70318 24.3281 5.20318 24.3594 4.94537 23.8594C4.81255 23.6094 4.8438 23.3281 4.8438 23.0547C4.8438 20.7109 4.8438 18.375 4.8438 16.0312C4.8438 15.4375 4.64068 14.3281 5.19537 13.9219C5.5313 13.6719 6.04693 13.75 6.44537 13.75C7.07818 13.75 7.71099 13.75 8.35162 13.75C8.72662 13.75 9.22662 13.6719 9.57818 13.8281C9.99224 14.0156 10.086 14.4141 10.086 14.8203C10.086 15.7812 10.086 16.7344 10.086 17.6953C10.086 19 10.086 20.3047 10.086 21.6016C10.086 22.0625 10.086 22.5234 10.086 22.9844C10.086 23.2109 10.1172 23.4922 10.0469 23.7109C9.92974 24.0859 9.5938 24.3125 9.21099 24.3281C8.46099 24.3594 8.45318 25.5312 9.21099 25.5C10.3516 25.4609 11.2266 24.5938 11.2579 23.4453C11.2657 23.2109 11.2579 22.9766 11.2579 22.7422C11.2579 21.4531 11.2579 20.1719 11.2579 18.8828C11.2579 17.6484 11.2579 16.4219 11.2579 15.1875C11.2579 14.875 11.2735 14.5625 11.2188 14.2578C11.0469 13.2656 10.1563 12.6016 9.17974 12.5781C8.06255 12.5469 6.93755 12.5703 5.82037 12.5781C4.93755 12.5859 4.14849 13.0391 3.81255 13.8828C3.66412 14.2578 3.66412 14.6406 3.66412 15.0312C3.66412 17.5469 3.66412 20.0625 3.66412 22.5703C3.66412 22.8516 3.6563 23.1406 3.66412 23.4219C3.68755 24.375 4.32818 25.25 5.28912 25.4453C5.77349 25.5391 6.29693 25.4922 6.7813 25.4922C7.46099 25.4922 8.14068 25.4922 8.82037 25.4922C8.94537 25.4922 9.07818 25.4922 9.20318 25.4922C9.9688 25.5 9.9688 24.3281 9.21099 24.3281ZM4.57037 29.1875C6.50005 29.1875 8.42974 29.1875 10.3672 29.1875C11.1251 29.1875 11.1251 28.0156 10.3672 28.0156C8.43755 28.0156 6.50787 28.0156 4.57037 28.0156C3.81255 28.0156 3.81255 29.1875 4.57037 29.1875ZM4.57037 31.2734C6.50005 31.2734 8.42974 31.2734 10.3672 31.2734C11.1251 31.2734 11.1251 30.1016 10.3672 30.1016C8.43755 30.1016 6.50787 30.1016 4.57037 30.1016C3.81255 30.1016 3.81255 31.2734 4.57037 31.2734ZM4.57037 33.3594C6.50005 33.3594 8.42974 33.3594 10.3672 33.3594C11.1251 33.3594 11.1251 32.1875 10.3672 32.1875C8.43755 32.1875 6.50787 32.1875 4.57037 32.1875C3.81255 32.1875 3.81255 33.3594 4.57037 33.3594ZM15.6485 17.5391C16.836 17.5391 18.0313 17.5391 19.2188 17.5391C19.9766 17.5391 19.9766 16.3672 19.2188 16.3672C18.0313 16.3672 16.836 16.3672 15.6485 16.3672C14.8985 16.3672 14.8907 17.5391 15.6485 17.5391ZM15.6485 19.625C16.836 19.625 18.0313 19.625 19.2188 19.625C19.9766 19.625 19.9766 18.4531 19.2188 18.4531C18.0313 18.4531 16.836 18.4531 15.6485 18.4531C14.8985 18.4531 14.8907 19.625 15.6485 19.625ZM15.6485 21.7109C16.836 21.7109 18.0313 21.7109 19.2188 21.7109C19.9766 21.7109 19.9766 20.5391 19.2188 20.5391C18.0313 20.5391 16.836 20.5391 15.6485 20.5391C14.8985 20.5391 14.8907 21.7109 15.6485 21.7109ZM23.2735 6.26562C23.2735 9.86719 23.2735 13.4687 23.2735 17.0625C23.2735 17.5703 23.2735 18.0781 23.2735 18.5781C23.2735 19.3359 24.4454 19.3359 24.4454 18.5781C24.4454 14.9766 24.4454 11.375 24.4454 7.78125C24.4454 7.27344 24.4454 6.76562 24.4454 6.26562C24.4454 5.51562 23.2735 5.51562 23.2735 6.26562ZM23.2735 21.125C23.2735 22.2266 23.2735 23.3281 23.2735 24.4297C23.2735 25.1875 24.4454 25.1875 24.4454 24.4297C24.4454 23.3281 24.4454 22.2266 24.4454 21.125C24.4454 20.375 23.2735 20.3672 23.2735 21.125ZM23.2735 28.0312C23.2735 29.5 23.2735 30.9688 23.2735 32.4375C23.2735 33.1953 24.4454 33.1953 24.4454 32.4375C24.4454 30.9688 24.4454 29.5 24.4454 28.0312C24.4454 27.2734 23.2735 27.2734 23.2735 28.0312ZM32.7969 11.4844C30.7032 11.4844 28.6094 11.4844 26.5157 11.4844C25.7579 11.4844 25.7579 12.6562 26.5157 12.6562C28.6094 12.6562 30.7032 12.6562 32.7969 12.6562C33.5547 12.6562 33.5547 11.4844 32.7969 11.4844Z" fill="black"/>
<path d="M32.7969 14.1641C30.7031 14.1641 28.6094 14.1641 26.5156 14.1641C25.7578 14.1641 25.7578 15.3359 26.5156 15.3359C28.6094 15.3359 30.7031 15.3359 32.7969 15.3359C33.5547 15.3359 33.5547 14.1641 32.7969 14.1641ZM28.625 27.1016C29.3125 27.1016 30 27.1016 30.6875 27.1016C31.4453 27.1016 31.4453 25.9297 30.6875 25.9297C30 25.9297 29.3125 25.9297 28.625 25.9297C27.875 25.9297 27.875 27.1016 28.625 27.1016ZM28.625 29.1875C29.3125 29.1875 30 29.1875 30.6875 29.1875C31.4453 29.1875 31.4453 28.0156 30.6875 28.0156C30 28.0156 29.3125 28.0156 28.625 28.0156C27.875 28.0156 27.875 29.1875 28.625 29.1875ZM28.625 31.2734C29.3125 31.2734 30 31.2734 30.6875 31.2734C31.4453 31.2734 31.4453 30.1016 30.6875 30.1016C30 30.1016 29.3125 30.1016 28.625 30.1016C27.875 30.1016 27.875 31.2734 28.625 31.2734ZM38.7422 17.375C36.7578 17.375 34.7812 17.375 32.7969 17.375C32.0391 17.375 32.0391 18.5469 32.7969 18.5469C34.7812 18.5469 36.7578 18.5469 38.7422 18.5469C39.4922 18.5469 39.4922 17.375 38.7422 17.375ZM38.7422 20.0625C36.7578 20.0625 34.7812 20.0625 32.7969 20.0625C32.0391 20.0625 32.0391 21.2344 32.7969 21.2344C34.7812 21.2344 36.7578 21.2344 38.7422 21.2344C39.4922 21.2344 39.4922 20.0625 38.7422 20.0625ZM38.7422 28.0156C36.7578 28.0156 34.7812 28.0156 32.7969 28.0156C32.0391 28.0156 32.0391 29.1875 32.7969 29.1875C34.7812 29.1875 36.7578 29.1875 38.7422 29.1875C39.4922 29.1875 39.4922 28.0156 38.7422 28.0156ZM38.7422 30.7031C36.7578 30.7031 34.7812 30.7031 32.7969 30.7031C32.0391 30.7031 32.0391 31.875 32.7969 31.875C34.7812 31.875 36.7578 31.875 38.7422 31.875C39.4922 31.875 39.4922 30.7031 38.7422 30.7031Z" fill="black"/>
</svg>
