<svg width="40" height="40" viewBox="0 0 40 40" fill="none" xmlns="http://www.w3.org/2000/svg">
<path d="M11.5377 29.0001C12.2225 29.0001 12.892 28.797 13.4614 28.4165C14.0308 28.0361 14.4746 27.4953 14.7366 26.8626C14.9987 26.2299 15.0673 25.5337 14.9337 24.8621C14.8001 24.1904 14.4703 23.5735 13.9861 23.0892C13.5018 22.605 12.8849 22.2752 12.2132 22.1416C11.5415 22.008 10.8453 22.0766 10.2127 22.3386C9.57996 22.6007 9.0392 23.0445 8.65873 23.6139C8.27827 24.1833 8.0752 24.8528 8.0752 25.5376C8.07685 26.4554 8.44218 27.3351 9.09116 27.9841C9.74015 28.6331 10.6199 28.9984 11.5377 29.0001ZM11.5377 23.3188C11.9753 23.3188 12.403 23.4486 12.7669 23.6917C13.1307 23.9348 13.4143 24.2804 13.5818 24.6846C13.7492 25.0889 13.7931 25.5338 13.7077 25.963C13.6223 26.3921 13.4116 26.7864 13.1022 27.0958C12.7927 27.4052 12.3985 27.6159 11.9693 27.7013C11.5401 27.7867 11.0953 27.7429 10.691 27.5754C10.2867 27.4079 9.94118 27.1244 9.69807 26.7605C9.45496 26.3967 9.3252 25.9689 9.3252 25.5313C9.32684 24.945 9.56048 24.3832 9.97504 23.9687C10.3896 23.5541 10.9514 23.3205 11.5377 23.3188Z" fill="black"/>
<path d="M2.42502 27.3938L4.78752 27.6875C4.9082 28.0684 5.06082 28.4385 5.24377 28.7938L3.75002 30.6688C3.65649 30.7888 3.60997 30.9388 3.61918 31.0907C3.62838 31.2426 3.69268 31.3859 3.80002 31.4938L5.54377 33.2375C5.65162 33.3448 5.79494 33.4091 5.94682 33.4183C6.09871 33.4275 6.24873 33.381 6.36877 33.2875L8.24377 31.825C8.59888 32.0082 8.96897 32.1609 9.35002 32.2813L9.64377 34.6438C9.66219 34.7962 9.73608 34.9365 9.85136 35.038C9.96663 35.1394 10.1152 35.1949 10.2688 35.1938H12.7688C12.9223 35.1949 13.0709 35.1394 13.1862 35.038C13.3014 34.9365 13.3753 34.7962 13.3938 34.6438L13.6875 32.2813C14.0685 32.1606 14.4385 32.008 14.7938 31.825L16.6688 33.2875C16.7885 33.3836 16.9394 33.4322 17.0927 33.4241C17.246 33.4161 17.391 33.3519 17.5 33.2437L19.2438 31.5C19.3511 31.3921 19.4154 31.2488 19.4246 31.0969C19.4338 30.9451 19.3873 30.795 19.2938 30.675L17.8313 28.8C18.0144 28.4448 18.167 28.0747 18.2875 27.6938L20.625 27.3938C20.7775 27.3753 20.9178 27.3014 21.0192 27.1862C21.1207 27.0709 21.1761 26.9223 21.175 26.7688V24.2688C21.1761 24.1152 21.1207 23.9666 21.0192 23.8513C20.9178 23.7361 20.7775 23.6622 20.625 23.6438L18.2625 23.35C18.142 22.969 17.9894 22.5989 17.8063 22.2438L19.2688 20.3688C19.3623 20.2487 19.4088 20.0987 19.3996 19.9468C19.3904 19.7949 19.3261 19.6516 19.2188 19.5438L17.5 17.8313C17.3922 17.7239 17.2488 17.6596 17.097 17.6504C16.9451 17.6412 16.795 17.6877 16.675 17.7813L14.8 19.2438C14.444 19.0476 14.0718 18.8824 13.6875 18.75L13.3938 16.3875C13.3753 16.2351 13.3014 16.0947 13.1862 15.9933C13.0709 15.8918 12.9223 15.8364 12.7688 15.8375H10.2688C10.1152 15.8364 9.96663 15.8918 9.85136 15.9933C9.73608 16.0947 9.66219 16.2351 9.64377 16.3875L9.37502 18.75C8.99397 18.8704 8.62388 19.023 8.26877 19.2063L6.39377 17.7438C6.27373 17.6502 6.12371 17.6037 5.97182 17.6129C5.81994 17.6221 5.67662 17.6864 5.56877 17.7937L3.83127 19.575C3.71926 19.6788 3.64915 19.8201 3.63418 19.9721C3.61921 20.1241 3.66042 20.2763 3.75002 20.4L5.21252 22.275C5.02957 22.6303 4.87695 23.0003 4.75627 23.3813L2.39377 23.675C2.24132 23.6934 2.101 23.7673 1.99955 23.8826C1.89811 23.9979 1.84266 24.1465 1.84377 24.3V26.8C1.85106 26.953 1.91429 27.098 2.02144 27.2074C2.12859 27.3169 2.27221 27.3832 2.42502 27.3938ZM3.12502 24.85L5.35002 24.5688C5.4756 24.5536 5.59362 24.5006 5.68848 24.4169C5.78333 24.3332 5.85056 24.2227 5.88127 24.1C6.0127 23.5516 6.22324 23.0253 6.50627 22.5375C6.5712 22.4291 6.60177 22.3037 6.59396 22.1776C6.58615 22.0515 6.54032 21.9308 6.46252 21.8313L5.08752 20.0625L6.05627 19.0938L7.82502 20.4688C7.92453 20.5466 8.04528 20.5924 8.17135 20.6002C8.29743 20.608 8.42291 20.5774 8.53127 20.5125C9.01906 20.2296 9.5454 20.019 10.0938 19.8875C10.2165 19.8568 10.327 19.7896 10.4107 19.6947C10.4944 19.5999 10.5473 19.4818 10.5625 19.3562L10.8438 17.1313H12.2125L12.5 19.375C12.5152 19.5006 12.5681 19.6186 12.6518 19.7135C12.7355 19.8083 12.846 19.8755 12.9688 19.9063C13.5171 20.0378 14.0435 20.2483 14.5313 20.5312C14.6396 20.5962 14.7651 20.6268 14.8912 20.6189C15.0173 20.6111 15.138 20.5653 15.2375 20.4875L17.0063 19.1125L17.975 20.0813L16.6 21.85C16.5222 21.9495 16.4764 22.0703 16.4686 22.1963C16.4608 22.3224 16.4913 22.4479 16.5563 22.5563C16.8395 23.0439 17.05 23.5703 17.1813 24.1188C17.212 24.2415 17.2792 24.352 17.3741 24.4357C17.4689 24.5194 17.5869 24.5723 17.7125 24.5875L19.9375 24.8688V26.25L17.7125 26.5313C17.5869 26.5464 17.4689 26.5994 17.3741 26.6831C17.2792 26.7668 17.212 26.8773 17.1813 27C17.05 27.5485 16.8395 28.0748 16.5563 28.5625C16.4913 28.6709 16.4608 28.7963 16.4686 28.9224C16.4764 29.0485 16.5222 29.1692 16.6 29.2688L17.975 31.0375L17.0063 32.0063L15.2375 30.6313C15.138 30.5534 15.0173 30.5076 14.8912 30.4998C14.7651 30.492 14.6396 30.5226 14.5313 30.5875C14.0435 30.8704 13.5171 31.081 12.9688 31.2125C12.846 31.2432 12.7355 31.3104 12.6518 31.4053C12.5681 31.5001 12.5152 31.6182 12.5 31.7438L12.2188 33.9688H10.8563L10.575 31.7438C10.5598 31.6182 10.5069 31.5001 10.4232 31.4053C10.3395 31.3104 10.229 31.2432 10.1063 31.2125C9.5579 31.081 9.03156 30.8704 8.54377 30.5875C8.43541 30.5226 8.30993 30.492 8.18385 30.4998C8.05778 30.5076 7.93703 30.5534 7.83752 30.6313L6.06877 32.0063L5.10627 31L6.48127 29.2313C6.55907 29.1317 6.6049 29.011 6.61271 28.8849C6.62052 28.7588 6.58995 28.6334 6.52502 28.525C6.24199 28.0372 6.03145 27.5109 5.90002 26.9625C5.86931 26.8398 5.80208 26.7293 5.70723 26.6456C5.61237 26.5619 5.49435 26.5089 5.36877 26.4938L3.12502 26.25V24.85ZM28.4625 11C27.7777 11 27.1083 11.2031 26.5389 11.5835C25.9694 11.964 25.5257 12.5048 25.2636 13.1375C25.0015 13.7701 24.9329 14.4663 25.0665 15.138C25.2001 15.8097 25.5299 16.4266 26.0142 16.9109C26.4984 17.3951 27.1154 17.7249 27.787 17.8585C28.4587 17.9921 29.1549 17.9235 29.7876 17.6614C30.4202 17.3994 30.961 16.9556 31.3415 16.3862C31.7219 15.8168 31.925 15.1473 31.925 14.4625C31.9234 13.5447 31.558 12.665 30.909 12.016C30.2601 11.367 29.3803 11.0017 28.4625 11ZM28.4625 16.6813C28.0249 16.6813 27.5972 16.5515 27.2333 16.3084C26.8695 16.0653 26.5859 15.7197 26.4184 15.3154C26.251 14.9112 26.2072 14.4663 26.2925 14.0371C26.3779 13.6079 26.5886 13.2137 26.898 12.9043C27.2075 12.5949 27.6017 12.3841 28.0309 12.2988C28.4601 12.2134 28.9049 12.2572 29.3092 12.4247C29.7135 12.5921 30.059 12.8757 30.3021 13.2396C30.5453 13.6034 30.675 14.0312 30.675 14.4687C30.6734 15.055 30.4397 15.6168 30.0252 16.0314C29.6106 16.446 29.0488 16.6796 28.4625 16.6813Z" fill="black"/>
<path d="M37.5752 12.6063L35.2127 12.3126C35.092 11.9317 34.9393 11.5616 34.7565 11.2063L36.219 9.33132C36.3125 9.21128 36.359 9.06126 36.3498 8.90937C36.3406 8.75748 36.2763 8.61417 36.169 8.50632L34.4252 6.76257C34.3174 6.65523 34.174 6.59093 34.0222 6.58173C33.8703 6.57252 33.7202 6.61904 33.6002 6.71257L31.7252 8.17507C31.3724 7.98814 31.0044 7.83133 30.6252 7.70632L30.3127 5.35007C30.2943 5.19762 30.2204 5.05729 30.1051 4.95585C29.9898 4.85441 29.8413 4.79896 29.6877 4.80007H27.1877C27.0342 4.79896 26.8856 4.85441 26.7703 4.95585C26.655 5.05729 26.5811 5.19762 26.5627 5.35007L26.269 7.71257C25.888 7.83322 25.518 7.98585 25.1627 8.16882L23.2877 6.70632C23.1677 6.61279 23.0177 6.56627 22.8658 6.57548C22.7139 6.58468 22.5706 6.64898 22.4627 6.75632L20.719 8.50007C20.6116 8.60792 20.5473 8.75123 20.5381 8.90312C20.5289 9.05501 20.5754 9.20503 20.669 9.32507L22.1315 11.2001C21.948 11.5551 21.7954 11.9252 21.6752 12.3063L19.3752 12.6063C19.2228 12.6247 19.0824 12.6986 18.981 12.8139C18.8796 12.9292 18.8241 13.0778 18.8252 13.2313V15.7313C18.8241 15.8849 18.8796 16.0334 18.981 16.1487C19.0824 16.264 19.2228 16.3379 19.3752 16.3563L21.7377 16.6501C21.8579 17.0312 22.0105 17.4013 22.194 17.7563L20.7315 19.6313C20.6379 19.7513 20.5914 19.9014 20.6006 20.0533C20.6098 20.2051 20.6741 20.3485 20.7815 20.4563L22.5002 22.1688C22.6081 22.2761 22.7514 22.3404 22.9033 22.3497C23.0552 22.3589 23.2052 22.3123 23.3252 22.2188L25.2002 20.7563C25.5562 20.9525 25.9284 21.1177 26.3127 21.2501L26.6065 23.6126C26.6249 23.765 26.6988 23.9053 26.8141 24.0068C26.9293 24.1082 27.0779 24.1637 27.2315 24.1626H29.7315C29.885 24.1637 30.0336 24.1082 30.1489 24.0068C30.2641 23.9053 30.338 23.765 30.3565 23.6126L30.6252 21.2501C31.0062 21.1295 31.3763 20.9769 31.7315 20.7938L33.6065 22.2563C33.7265 22.3498 33.8765 22.3964 34.0284 22.3872C34.1803 22.378 34.3236 22.3136 34.4315 22.2063L36.1752 20.4626C36.2966 20.3563 36.3723 20.2072 36.3862 20.0464C36.4002 19.8856 36.3515 19.7257 36.2502 19.6001L34.7877 17.7251C34.9707 17.3698 35.1233 16.9997 35.244 16.6188L37.6065 16.3251C37.7589 16.3066 37.8992 16.2327 38.0007 16.1175C38.1021 16.0022 38.1576 15.8536 38.1565 15.7001V13.2001C38.1492 13.0471 38.0859 12.9021 37.9788 12.7926C37.8716 12.6832 37.728 12.6169 37.5752 12.6063ZM36.8752 15.1501L34.6502 15.4251C34.5246 15.4403 34.4066 15.4932 34.3118 15.5769C34.2169 15.6606 34.1497 15.7711 34.119 15.8938C33.9875 16.4422 33.777 16.9686 33.494 17.4563C33.429 17.5647 33.3985 17.6902 33.4063 17.8162C33.4141 17.9423 33.4599 18.0631 33.5377 18.1626L34.9127 19.9313L33.944 20.9001L32.1752 19.5251C32.0757 19.4473 31.955 19.4014 31.8289 19.3936C31.7028 19.3858 31.5773 19.4164 31.469 19.4813C30.9812 19.7643 30.4549 19.9749 29.9065 20.1063C29.7837 20.137 29.6732 20.2042 29.5895 20.2991C29.5058 20.394 29.4529 20.512 29.4377 20.6376L29.1565 22.8626H27.7752L27.5002 20.6251C27.485 20.4995 27.4321 20.3815 27.3484 20.2866C27.2647 20.1918 27.1542 20.1245 27.0315 20.0938C26.4831 19.9623 25.9568 19.7518 25.469 19.4688C25.3606 19.4039 25.2351 19.3733 25.109 19.3811C24.983 19.3889 24.8622 19.4348 24.7627 19.5126L22.994 20.8876L22.0252 19.9188L23.4002 18.1501C23.478 18.0506 23.5238 17.9298 23.5317 17.8037C23.5395 17.6777 23.5089 17.5522 23.444 17.4438C23.1605 16.9563 22.95 16.4298 22.819 15.8813C22.7882 15.7586 22.721 15.6481 22.6262 15.5644C22.5313 15.4807 22.4133 15.4278 22.2877 15.4126L20.0627 15.1376V13.7501L22.2877 13.4751C22.4133 13.4599 22.5313 13.4069 22.6262 13.3232C22.721 13.2395 22.7882 13.129 22.819 13.0063C22.9498 12.4577 23.1604 11.9313 23.444 11.4438C23.5089 11.3355 23.5395 11.21 23.5317 11.0839C23.5238 10.9578 23.478 10.8371 23.4002 10.7376L22.0252 8.96882L22.994 8.00007L24.7627 9.37507C24.8622 9.45287 24.983 9.4987 25.109 9.50651C25.2351 9.51432 25.3606 9.48375 25.469 9.41882C25.9568 9.13587 26.4831 8.92533 27.0315 8.79382C27.1542 8.76311 27.2647 8.69588 27.3484 8.60103C27.4321 8.50617 27.485 8.38815 27.5002 8.26257L27.7815 6.03757H29.1502L29.4315 8.26257C29.4467 8.38815 29.4996 8.50617 29.5833 8.60103C29.667 8.69588 29.7775 8.76311 29.9002 8.79382C30.4486 8.92533 30.9749 9.13587 31.4627 9.41882C31.5711 9.48375 31.6965 9.51432 31.8226 9.50651C31.9487 9.4987 32.0695 9.45287 32.169 9.37507L33.9377 8.00007L34.9065 8.96882L33.5315 10.7376C33.4537 10.8371 33.4078 10.9578 33.4 11.0839C33.3922 11.21 33.4228 11.3355 33.4877 11.4438C33.7708 11.9315 33.9814 12.4579 34.1127 13.0063C34.1434 13.129 34.2106 13.2395 34.3055 13.3232C34.4004 13.4069 34.5184 13.4599 34.644 13.4751L36.8752 13.7501V15.1501Z" fill="black"/>
</svg>
